<svg xmlns="http://www.w3.org/2000/svg" xmlns:xlink="http://www.w3.org/1999/xlink" id="Isolation_Mode" viewBox="0 0 410.75 197.61"><defs><linearGradient id="linear-gradient" x1="105.36" x2="324.37" y1="66.27" y2="66.27" gradientUnits="userSpaceOnUse"><stop offset="0" stop-color="#1dc7de"></stop><stop offset="1" stop-color="#525187"></stop></linearGradient><linearGradient xlink:href="#linear-gradient" id="linear-gradient-2" x1="-5454.35" x2="-5454.35" y1="-275.46" y2="-276.46" gradientTransform="matrix(89.21 0 0 -106.81 486648.04 -29395.38)"></linearGradient><linearGradient xlink:href="#linear-gradient" id="linear-gradient-3" x1="-5437.59" x2="-5437.59" y1="-275.44" y2="-276.44" gradientTransform="matrix(69.25 0 0 -107 376951.75 -29446.7)"></linearGradient><linearGradient xlink:href="#linear-gradient" id="linear-gradient-4" x1="123.44" x2="191.01" y1="106.69" y2="108.13"></linearGradient><style>.cls-2{fill:#fff}</style></defs><path d="M181.44 197.61c-.79 0-1.5-.18-2.15-.53-.65-.35-.97-.86-.97-1.53v-38.97c0-.71.32-1.22.97-1.53s1.36-.47 2.15-.47 1.5.16 2.15.47.97.82.97 1.53v38.97c0 .67-.32 1.18-.97 1.53-.65.35-1.36.53-2.15.53ZM200.16 197.61c-.79 0-1.5-.18-2.15-.53-.65-.35-.97-.86-.97-1.53v-38.92c0-.75.32-1.27.97-1.59.65-.31 1.36-.47 2.15-.47s1.38.11 1.91.32c.53.22 1.01.58 1.44 1.09.43.51.88 1.22 1.35 2.12l13.07 25.49v-27.02c0-.71.32-1.22.97-1.53.65-.31 1.36-.47 2.15-.47s1.5.16 2.15.47c.65.31.97.82.97 1.53v38.97c0 .67-.32 1.18-.97 1.53-.65.35-1.36.53-2.15.53s-1.49-.2-2.12-.59c-.63-.39-1.16-.96-1.59-1.71l-14.07-26.79v27.02c0 .67-.32 1.18-.97 1.53-.65.35-1.36.53-2.15.53ZM239.78 197.61c-.79 0-1.5-.17-2.15-.5-.65-.33-.97-.85-.97-1.56v-38.92c0-.67.29-1.18.88-1.53a3.64 3.64 0 0 1 1.88-.53h20.67c.71 0 1.22.29 1.53.88.31.59.47 1.2.47 1.82 0 .75-.17 1.4-.5 1.97-.33.57-.83.85-1.5.85H242.9v13.48h9.12c.67 0 1.17.26 1.5.77.33.51.5 1.1.5 1.77 0 .55-.16 1.09-.47 1.62-.31.53-.82.79-1.53.79h-9.12v17.01c0 .71-.32 1.23-.97 1.56-.65.33-1.36.5-2.15.5ZM274.16 197.61c-.79 0-1.5-.18-2.15-.53-.65-.35-.97-.86-.97-1.53v-38.97c0-.71.32-1.22.97-1.53s1.36-.47 2.15-.47 1.5.16 2.15.47.97.82.97 1.53v38.97c0 .67-.32 1.18-.97 1.53-.65.35-1.36.53-2.15.53ZM292.88 197.61c-.79 0-1.5-.18-2.15-.53-.65-.35-.97-.86-.97-1.53v-38.92c0-.75.32-1.27.97-1.59.65-.31 1.36-.47 2.15-.47s1.38.11 1.91.32c.53.22 1.01.58 1.44 1.09.43.51.88 1.22 1.35 2.12l13.07 25.49v-27.02c0-.71.32-1.22.97-1.53.65-.31 1.36-.47 2.15-.47s1.5.16 2.15.47c.65.31.97.82.97 1.53v38.97c0 .67-.32 1.18-.97 1.53-.65.35-1.36.53-2.15.53s-1.49-.2-2.12-.59c-.63-.39-1.16-.96-1.59-1.71l-14.07-26.79v27.02c0 .67-.32 1.18-.97 1.53-.65.35-1.36.53-2.15.53ZM332.5 197.61c-.79 0-1.5-.18-2.15-.53-.65-.35-.97-.86-.97-1.53v-38.97c0-.71.32-1.22.97-1.53.65-.31 1.36-.47 2.15-.47s1.5.16 2.15.47.97.82.97 1.53v38.97c0 .67-.32 1.18-.97 1.53-.65.35-1.36.53-2.15.53ZM359.11 197.61c-.79 0-1.5-.18-2.15-.53-.65-.35-.97-.86-.97-1.53v-35.27h-9.12c-.63 0-1.12-.29-1.47-.88-.35-.59-.53-1.26-.53-2 0-.71.16-1.35.47-1.94.31-.59.82-.88 1.53-.88h24.43c.75 0 1.27.29 1.59.88a4 4 0 0 1 .47 1.88c0 .79-.17 1.47-.5 2.06s-.85.88-1.56.88h-9.07v35.27c0 .67-.32 1.18-.97 1.53-.65.35-1.36.53-2.15.53ZM395.09 197.61c-.79 0-1.5-.18-2.15-.53-.65-.35-.97-.86-.97-1.53v-14.89c0-.24-.06-.45-.18-.65l-12.19-21.96c-.08-.2-.13-.36-.15-.5s-.03-.27-.03-.38c0-.51.22-.95.65-1.33.43-.37.95-.68 1.56-.91s1.19-.35 1.74-.35c.51 0 .91.12 1.21.35.29.24.56.59.79 1.06l9.71 18.66 9.66-18.66c.27-.47.56-.82.85-1.06s.7-.35 1.21-.35c.55 0 1.13.12 1.74.35.61.24 1.13.54 1.56.91.43.37.65.82.65 1.33 0 .12-.01.25-.03.38-.02.14-.09.3-.21.5l-12.13 21.96c-.12.2-.18.41-.18.65v14.89c0 .67-.32 1.18-.97 1.53-.65.35-1.36.53-2.15.53ZM152.57 178.1H2.11c-1.1 0-2-.9-2-2s.9-2 2-2h150.46c1.1 0 2 .9 2 2s-.9 2-2 2Z" class="cls-2"></path><path d="M272.42 131.98c-28.35 4.5-58.13-19.02-75.1-35.52-9.77-12.05-19.24-20.5-19.24-20.5-9.04-8.81-24.63-21.04-36.72-19.13-13.41 2.13-22.58 14.76-20.45 28.14 2.12 13.37 14.77 22.53 28.17 20.41 10.09-1.6 19.19-12.79 25.33-22.9a508.8 508.8 0 0 1 18.78 20.33c-8.89 12.76-22.17 26.15-39.91 28.97-27.99 4.44-54.38-14.67-58.83-42.61-4.45-27.94 14.69-54.29 42.69-58.73 21.01-3.33 41.07 9.87 53.78 20.96 0 0 9.57 9.3 19.23 20.05 15.73 16.7 41.11 36.82 58.05 34.13 21.64-3.43 36.45-23.8 33.01-45.4-3.45-21.61-23.84-36.38-45.5-32.95-15.96 2.54-31.84 22.29-41.58 37.64-7.22-7.66-13.84-14.45-19.11-19.8C207.14 27.15 226.88 4.74 251.51.83c3.55-.56 7.06-.83 10.52-.83 32.11 0 60.46 23.34 65.66 55.98 5.76 36.16-19.03 70.25-55.27 76Z" style="fill:url(#linear-gradient)"></path><path id="Path_3454" d="M0 79.34c0 29.49 23.9 53.4 53.4 53.4 9.52 0 18.86-2.54 27.06-7.36 6.35-3.74 8.47-11.92 4.73-18.27s-11.92-8.47-18.27-4.73c-12.73 7.46-29.09 3.19-36.55-9.54-7.46-12.73-3.19-29.09 9.54-36.55 8.86-5.19 19.9-4.85 28.42.88 6.08 4.17 14.38 2.62 18.55-3.46s2.62-14.38-3.46-18.55c-.05-.03-.1-.07-.15-.1C58.81 18.57 25.62 25.03 9.13 49.48A53.422 53.422 0 0 0 0 79.34" style="fill:url(#linear-gradient-2)"></path><path id="Path_3456" d="M354.18 25.24c-7.38 0-13.37 5.98-13.37 13.36v80.27c0 7.38 5.98 13.37 13.37 13.37h42.63c7.38-.06 13.32-6.1 13.25-13.49-.06-7.29-5.96-13.19-13.25-13.25h-29.26V92.11h11.63c7.38 0 13.37-5.99 13.36-13.38 0-7.38-5.98-13.36-13.36-13.36h-11.63V51.98h29.26c7.38-.06 13.32-6.1 13.25-13.49-.06-7.29-5.96-13.19-13.25-13.25h-42.63Z" style="fill:url(#linear-gradient-3)"></path><path d="M193.21 102.82a501.442 501.442 0 0 0-18.78-20.33c-6.14 10.11-15.25 21.3-25.33 22.9-11.92 1.89-23.24-5.16-27.09-16.15L97.86 101c8.96 21.27 31.62 34.57 55.45 30.79 17.74-2.82 31.01-16.21 39.91-28.97Z" style="fill:url(#linear-gradient-4)"></path></svg>