<?xml version="1.0" encoding="UTF-8"?>
<svg xmlns="http://www.w3.org/2000/svg" xmlns:xlink="http://www.w3.org/1999/xlink" viewBox="0 0 487.34 487.32">
  <defs>
    <style>
      .cls-1, .cls-2, .cls-3, .cls-4, .cls-5, .cls-6, .cls-7, .cls-8, .cls-9, .cls-10, .cls-11, .cls-12, .cls-13, .cls-14, .cls-15, .cls-16, .cls-17 {
        fill-rule: evenodd;
      }

      .cls-1, .cls-3, .cls-6, .cls-9, .cls-13, .cls-15 {
        mix-blend-mode: multiply;
      }

      .cls-1, .cls-6 {
        fill: #6678b6;
      }

      .cls-18 {
        mix-blend-mode: color-dodge;
      }

      .cls-2 {
        fill: url(#radial-gradient-2);
      }

      .cls-3 {
        fill: url(#_Áåçûìÿííûé_ãðàäèåíò_30);
      }

      .cls-19 {
        fill: #020fb5;
      }

      .cls-4, .cls-10 {
        fill: #fff;
      }

      .cls-20 {
        fill: #1bf4f6;
      }

      .cls-21 {
        fill: url(#radial-gradient);
      }

      .cls-5 {
        fill: url(#_Áåçûìÿííûé_ãðàäèåíò_25);
      }

      .cls-6 {
        opacity: .5;
      }

      .cls-22 {
        isolation: isolate;
      }

      .cls-7 {
        fill: url(#_Áåçûìÿííûé_ãðàäèåíò_32);
      }

      .cls-8 {
        fill: url(#radial-gradient-3);
      }

      .cls-9 {
        fill: url(#_Áåçûìÿííûé_ãðàäèåíò_34-2);
      }

      .cls-10, .cls-11 {
        mix-blend-mode: soft-light;
      }

      .cls-23 {
        fill: url(#radial-gradient-4);
      }

      .cls-11 {
        fill: #d3ffdd;
      }

      .cls-24 {
        fill: #4888ff;
      }

      .cls-25 {
        opacity: .35;
      }

      .cls-12 {
        fill: url(#_Áåçûìÿííûé_ãðàäèåíò_35);
      }

      .cls-13 {
        fill: url(#_Áåçûìÿííûé_ãðàäèåíò_37);
      }

      .cls-26 {
        fill: url(#radial-gradient-6);
      }

      .cls-14 {
        fill: url(#_Áåçûìÿííûé_ãðàäèåíò_31);
      }

      .cls-15 {
        fill: url(#_Áåçûìÿííûé_ãðàäèåíò_34);
      }

      .cls-16 {
        fill: url(#_Áåçûìÿííûé_ãðàäèåíò_31-2);
      }

      .cls-17 {
        fill: url(#radial-gradient-5);
      }
    </style>
    <radialGradient id="radial-gradient" cx="7815.66" cy="9444.41" fx="7815.66" fy="9444.41" r="778.36" gradientTransform="translate(1491.92 12458.56) rotate(-146.31)" gradientUnits="userSpaceOnUse">
      <stop offset="0" stop-color="#fff"/>
      <stop offset=".2" stop-color="#ecedf3"/>
      <stop offset=".61" stop-color="#bbc0d6"/>
      <stop offset="1" stop-color="#878fb7"/>
    </radialGradient>
    <radialGradient id="radial-gradient-2" cx="127.54" cy="418.15" fx="127.54" fy="418.15" r="119.2" gradientTransform="translate(-93.41 437.04) rotate(-59.78) scale(1 .43)" gradientUnits="userSpaceOnUse">
      <stop offset="0" stop-color="#c7feff"/>
      <stop offset=".16" stop-color="#bdebff"/>
      <stop offset=".46" stop-color="#a4bcff"/>
      <stop offset=".97" stop-color="#637bff"/>
    </radialGradient>
    <linearGradient id="_Áåçûìÿííûé_ãðàäèåíò_37" data-name="Áåçûìÿííûé ãðàäèåíò 37" x1="-326.79" y1="489.46" x2="-231.91" y2="489.46" gradientTransform="translate(-245.76 -10.81) rotate(165.74) scale(1 -1)" gradientUnits="userSpaceOnUse">
      <stop offset="0" stop-color="#687ac0"/>
      <stop offset=".03" stop-color="#6c7ec2"/>
      <stop offset=".5" stop-color="#bbc3e2"/>
      <stop offset=".83" stop-color="#eceef7"/>
      <stop offset="1" stop-color="#fff"/>
    </linearGradient>
    <radialGradient id="radial-gradient-3" cx="208.93" cy="306.52" fx="208.93" fy="306.52" r="58.36" gradientUnits="userSpaceOnUse">
      <stop offset="0" stop-color="#fff"/>
      <stop offset="1" stop-color="#bfc1ff"/>
    </radialGradient>
    <radialGradient id="radial-gradient-4" cx="221.54" cy="332.12" fx="221.54" fy="332.12" r="107.58" gradientUnits="userSpaceOnUse">
      <stop offset="0" stop-color="#c7feff"/>
      <stop offset=".27" stop-color="#bdebff"/>
      <stop offset=".79" stop-color="#a4bcff"/>
      <stop offset=".97" stop-color="#637bff"/>
    </radialGradient>
    <linearGradient id="_Áåçûìÿííûé_ãðàäèåíò_34" data-name="Áåçûìÿííûé ãðàäèåíò 34" x1="-435.83" y1="538.65" x2="-435.83" y2="422.02" gradientTransform="translate(-237.16 -11.6) rotate(167.14) scale(1 -1)" gradientUnits="userSpaceOnUse">
      <stop offset="0" stop-color="#fff"/>
      <stop offset=".28" stop-color="#ecefff"/>
      <stop offset=".84" stop-color="#bbc6ff"/>
      <stop offset="1" stop-color="#acbaff"/>
    </linearGradient>
    <linearGradient id="_Áåçûìÿííûé_ãðàäèåíò_35" data-name="Áåçûìÿííûé ãðàäèåíò 35" x1="-467.72" y1="340.45" x2="-450.61" y2="340.45" gradientTransform="translate(-172.41 -12.73) rotate(178.31) scale(1.04 -1)" gradientUnits="userSpaceOnUse">
      <stop offset="0" stop-color="#1b42e1"/>
      <stop offset=".36" stop-color="#1230ce"/>
      <stop offset="1" stop-color="#000aa4"/>
    </linearGradient>
    <linearGradient id="_Áåçûìÿííûé_ãðàäèåíò_34-2" data-name="Áåçûìÿííûé ãðàäèåíò 34" x1="-343.55" y1="525.8" x2="-343.55" y2="424.38" xlink:href="#_Áåçûìÿííûé_ãðàäèåíò_34"/>
    <linearGradient id="_Áåçûìÿííûé_ãðàäèåíò_25" data-name="Áåçûìÿííûé ãðàäèåíò 25" x1="-449.01" y1="366.02" x2="-420.89" y2="366.02" gradientTransform="translate(-158.78) rotate(-180) scale(1 -1)" gradientUnits="userSpaceOnUse">
      <stop offset="0" stop-color="#c7feff"/>
      <stop offset=".22" stop-color="#bcebff"/>
      <stop offset=".68" stop-color="#a2baff"/>
      <stop offset=".82" stop-color="#9aaaff"/>
      <stop offset=".99" stop-color="#b6ffe6"/>
    </linearGradient>
    <radialGradient id="radial-gradient-5" cx="330.31" cy="320.27" fx="330.31" fy="320.27" r="156.03" gradientTransform="translate(269.81 -18.78) rotate(63.43) scale(1 .3)" gradientUnits="userSpaceOnUse">
      <stop offset="0" stop-color="#c7feff"/>
      <stop offset=".13" stop-color="#bdebff"/>
      <stop offset=".4" stop-color="#a4bcff"/>
      <stop offset=".77" stop-color="#637bff"/>
      <stop offset="1" stop-color="#bff0ff"/>
    </radialGradient>
    <radialGradient id="radial-gradient-6" cx="191.2" cy="127.15" fx="191.2" fy="127.15" r="220.54" xlink:href="#radial-gradient-4"/>
    <linearGradient id="_Áåçûìÿííûé_ãðàäèåíò_32" data-name="Áåçûìÿííûé ãðàäèåíò 32" x1="-368.19" y1="218.94" x2="-368.19" y2="101.01" gradientTransform="translate(-131.72 6.68) rotate(-174.62) scale(1 -1)" gradientUnits="userSpaceOnUse">
      <stop offset="0" stop-color="#030fc6"/>
      <stop offset=".24" stop-color="#020fb3"/>
      <stop offset=".73" stop-color="#001082"/>
      <stop offset="1" stop-color="#001165"/>
    </linearGradient>
    <radialGradient id="_Áåçûìÿííûé_ãðàäèåíò_31" data-name="Áåçûìÿííûé ãðàäèåíò 31" cx="164.98" cy="89.6" fx="164.98" fy="89.6" r="62.11" gradientUnits="userSpaceOnUse">
      <stop offset="0" stop-color="#c7feff"/>
      <stop offset=".27" stop-color="#bcebff"/>
      <stop offset=".83" stop-color="#a2baff"/>
      <stop offset="1" stop-color="#9aaaff"/>
    </radialGradient>
    <radialGradient id="_Áåçûìÿííûé_ãðàäèåíò_31-2" data-name="Áåçûìÿííûé ãðàäèåíò 31" cx="324.98" cy="103.38" fx="324.98" fy="103.38" r="81.54" xlink:href="#_Áåçûìÿííûé_ãðàäèåíò_31"/>
    <linearGradient id="_Áåçûìÿííûé_ãðàäèåíò_30" data-name="Áåçûìÿííûé ãðàäèåíò 30" x1="-391.82" y1="130.79" x2="-391.82" y2="93.03" gradientTransform="translate(-158.78) rotate(-180) scale(1 -1)" gradientUnits="userSpaceOnUse">
      <stop offset="0" stop-color="#bfc6ff"/>
      <stop offset=".99" stop-color="#acbaff"/>
      <stop offset="1" stop-color="#acbaff"/>
    </linearGradient>
  </defs>
  <g class="cls-22">
    <g id="Layer_2" data-name="Layer 2">
      <g id="Tina">
        <g>
          <g id="Swirls" class="cls-25">
            <g>
              <path class="cls-19" d="M174.58,397.33c.87-2.71-.08-5.78-2.56-7.44-3-2-7.06-1.19-9.06,1.81s-1.19,7.06,1.81,9.06c2.61,1.74,6.02,1.35,8.18-.76,43.44,20.77,93.74,22.09,138.46,3.63.46.66,1.03,1.26,1.75,1.73,3,2,7.06,1.19,9.06-1.81,2-3,1.19-7.06-1.81-9.06s-7.06-1.19-9.06,1.81c-.9,1.35-1.2,2.91-1.02,4.41-43.82,18.12-93.13,16.89-135.74-3.39ZM166.49,398.17c-1.57-1.05-1.99-3.17-.95-4.74s3.17-1.99,4.74-.95c1.57,1.05,1.99,3.17.95,4.74-1.05,1.57-3.17,1.99-4.74.95ZM318.67,397.09c1.57,1.05,1.99,3.17.95,4.74-1.05,1.57-3.17,1.99-4.74.95s-1.99-3.17-.95-4.74c1.05-1.57,3.17-1.99,4.74-.95Z"/>
              <path class="cls-19" d="M402.07,177.33c.62-.44,1.18-.99,1.63-1.66,2-3,1.19-7.06-1.81-9.06-3-2-7.06-1.19-9.06,1.81-2,3-1.19,7.06,1.81,9.06,1.39.93,3.01,1.22,4.54,1,23.29,52.68,18.19,112.59-13.76,160.51-7.73,11.6-16.85,22.15-27.1,31.41-.27-.26-.55-.5-.87-.71-3-2-7.06-1.19-9.06,1.81-2,3-1.19,7.06,1.81,9.06,3,2,7.06,1.19,9.06-1.81,1.16-1.74,1.35-3.82.74-5.67,10.6-9.52,20.03-20.4,28.01-32.36,32.53-48.79,37.74-109.76,14.06-163.4ZM396.36,174.89c-1.57-1.05-1.99-3.17-.95-4.74s3.17-1.99,4.74-.95c1.57,1.05,1.99,3.17.95,4.74s-3.17,1.99-4.74.95ZM351.92,377.98c-1.57-1.05-1.99-3.17-.95-4.74s3.17-1.99,4.74-.95,1.99,3.17.95,4.74c-1.05,1.57-3.17,1.99-4.74.95Z"/>
              <path class="cls-19" d="M67.35,293.88c-.98.49-1.87,1.21-2.52,2.19-2,3-1.19,7.06,1.81,9.06,3,2,7.06,1.19,9.06-1.81,2-3,1.19-7.06-1.81-9.06-1.08-.72-2.3-1.06-3.51-1.08-13.47-50.56-4.61-104.4,24.41-147.93,3.78-5.66,7.9-11.14,12.25-16.31,2.79,1.08,6.06.13,7.79-2.46,2-3,1.19-7.06-1.81-9.06s-7.06-1.19-9.06,1.81c-1.67,2.51-1.35,5.74.54,7.91-4.36,5.2-8.5,10.7-12.29,16.39-29.5,44.25-38.52,98.97-24.85,150.37ZM72.17,296.85c1.57,1.05,1.99,3.17.95,4.74s-3.17,1.99-4.74.95c-1.57-1.05-1.99-3.17-.95-4.74,1.05-1.57,3.17-1.99,4.74-.95ZM106.55,120.95c1.05-1.57,3.17-1.99,4.74-.95s1.99,3.17.95,4.74-3.17,1.99-4.74.95c-1.57-1.05-1.99-3.17-.95-4.74Z"/>
              <path class="cls-19" d="M49.76,211.89c-2.03.07-4.01,1.07-5.22,2.89-2,3-1.19,7.06,1.81,9.06,3,2,7.06,1.19,9.06-1.81,2-3,1.19-7.06-1.81-9.06-.25-.17-.52-.29-.79-.42,4.67-26.96,14.8-52.27,30.11-75.23,14.38-21.56,32.47-39.73,53.77-54.04.21.19.42.38.67.55,3,2,7.06,1.19,9.06-1.81,2-3,1.18-7.06-1.81-9.06-3-2-7.06-1.19-9.06,1.81-1.22,1.83-1.38,4.05-.65,5.97-21.62,14.53-39.98,32.97-54.57,54.86-15.53,23.29-25.8,48.96-30.56,76.3ZM52.81,220.31c-1.05,1.57-3.17,1.99-4.74.95-1.57-1.05-1.99-3.17-.95-4.74,1.05-1.57,3.17-1.99,4.74-.95,1.57,1.05,1.99,3.17.95,4.74ZM142.87,75.55c1.57,1.05,1.99,3.17.95,4.74s-3.17,1.99-4.74.95c-1.57-1.04-1.99-3.17-.95-4.74s3.17-1.99,4.74-.95Z"/>
              <path class="cls-19" d="M361.06,409.37c.17.14.32.29.51.42,3,2,7.06,1.19,9.06-1.81,2-3,1.19-7.06-1.81-9.06s-7.06-1.19-9.06,1.81c-1.26,1.89-1.4,4.21-.58,6.16-39.39,27.67-87.34,39.88-135.26,34.43-.12-1.98-1.1-3.88-2.87-5.06-3-2-7.06-1.19-9.06,1.81-2,3-1.19,7.06,1.81,9.06,3,2,7.06,1.19,9.06-1.81.2-.3.35-.61.49-.93,48.79,5.61,97.62-6.81,137.72-35.01ZM367.09,401.5c1.57,1.05,1.99,3.17.95,4.74-1.05,1.57-3.17,1.99-4.74.95-1.57-1.05-1.99-3.17-.95-4.74,1.05-1.57,3.17-1.99,4.74-.95ZM215.52,444.53c-1.57-1.05-1.99-3.17-.95-4.74s3.17-1.99,4.74-.95,1.99,3.17.95,4.74c-1.05,1.57-3.17,1.99-4.74.95Z"/>
              <path class="cls-19" d="M370.44,59.97c-21.41-14.27-44.79-24.65-69.52-30.88.19-2.29-.81-4.62-2.86-5.98-3-2-7.06-1.19-9.06,1.81s-1.19,7.06,1.81,9.06c3,2,7.06,1.19,9.06-1.81.03-.04.04-.08.06-.12,24.46,6.13,47.59,16.38,68.77,30.5,35.14,23.43,62.6,56.12,79.52,94.58-.71.47-1.35,1.08-1.85,1.84-2,3-1.19,7.06,1.81,9.06s7.06,1.19,9.06-1.81c2-3,1.19-7.06-1.81-9.06-1.3-.87-2.8-1.18-4.25-1.03-17.15-39.12-45.04-72.35-80.76-96.16ZM292.55,31.4c-1.57-1.04-1.99-3.17-.95-4.74,1.05-1.57,3.17-1.99,4.74-.95s1.99,3.17.95,4.74c-1.04,1.57-3.17,1.99-4.74.95ZM453.71,159.76c1.57,1.05,1.99,3.17.95,4.74s-3.17,1.99-4.74.95c-1.57-1.05-1.99-3.17-.95-4.74,1.05-1.57,3.17-1.99,4.74-.95Z"/>
              <path class="cls-19" d="M71.62,106.19c-2.79-1.07-6.05-.12-7.77,2.47-2,3-1.19,7.06,1.81,9.06,3,2,7.06,1.18,9.06-1.81,1.67-2.51,1.35-5.75-.55-7.92,30.64-38.21,73.65-65.34,121.47-76.6.49,1.03,1.23,1.96,2.25,2.64,3,2,7.06,1.18,9.06-1.81,2-3,1.19-7.06-1.81-9.06s-7.06-1.19-9.06,1.81c-.69,1.04-1.03,2.2-1.07,3.37-48.59,11.42-92.3,39-123.39,77.86ZM72.13,114.18c-1.05,1.57-3.17,1.99-4.74.95s-1.99-3.17-.95-4.74,3.17-1.99,4.74-.95c1.57,1.05,1.99,3.17.95,4.74ZM203.41,25.75c1.57,1.05,1.99,3.17.95,4.74-1.05,1.57-3.17,1.99-4.74.95s-1.99-3.17-.95-4.74c1.05-1.57,3.17-1.99,4.74-.95Z"/>
              <path class="cls-19" d="M122.08,432.48c48.96,32.64,107.69,44.61,165.48,33.75.49.93,1.18,1.76,2.12,2.38,3,2,7.06,1.19,9.06-1.81,2-3,1.19-7.06-1.81-9.06-3-2-7.06-1.19-9.06,1.81-.75,1.12-1.1,2.4-1.1,3.66-56.91,10.64-114.74-1.17-162.96-33.32-20-13.33-37.52-29.64-52.1-48.45.14-.17.29-.32.41-.5,2-3,1.19-7.06-1.81-9.06s-7.06-1.19-9.06,1.81c-2,3-1.19,7.06,1.81,9.06,1.89,1.26,4.21,1.4,6.17.57,14.79,19.09,32.56,35.63,52.85,49.16ZM295.2,460.33c1.57,1.05,1.99,3.17.95,4.74-1.05,1.57-3.17,1.99-4.74.95-1.57-1.05-1.99-3.17-.95-4.74,1.05-1.57,3.17-1.99,4.74-.95ZM64.79,380.15c-1.57-1.04-1.99-3.17-.95-4.74,1.05-1.57,3.17-1.99,4.74-.95s1.99,3.17.95,4.74c-1.05,1.57-3.17,1.99-4.74.95Z"/>
              <path class="cls-19" d="M369.58,447.67c-3-2-7.06-1.19-9.06,1.81-1.19,1.78-1.36,3.93-.7,5.8-77.47,42-170.87,38.01-244.38-10.41.98-2.76.03-5.93-2.51-7.63-3-2-7.06-1.19-9.06,1.81-2,3-1.19,7.06,1.81,9.06,2.56,1.7,5.88,1.35,8.04-.65,74.55,49.11,169.3,53.11,247.82,10.42.25.23.5.45.79.65,3,2,7.06,1.19,9.06-1.81,2-3,1.19-7.06-1.81-9.06ZM107.4,445.53c-1.57-1.04-1.99-3.17-.95-4.74s3.17-1.99,4.74-.95,1.99,3.17.95,4.74c-1.05,1.57-3.17,1.99-4.74.95ZM364.06,455.95c-1.57-1.05-1.99-3.17-.95-4.74,1.05-1.57,3.17-1.99,4.74-.95,1.57,1.05,1.99,3.17.95,4.74-1.05,1.57-3.17,1.99-4.74.95Z"/>
              <path class="cls-19" d="M413.86,394.64c6.71-7.6,13-15.74,18.66-24.23,27.17-40.74,40.02-87.97,37.25-136.67,1.26-.46,2.4-1.29,3.2-2.49,2-3,1.19-7.06-1.81-9.06-3-2-7.06-1.19-9.06,1.81-2,3-1.19,7.06,1.81,9.06.86.57,1.8.89,2.76,1.01,2.69,47.97-9.99,94.48-36.74,134.61-5.58,8.38-11.78,16.4-18.4,23.9-2.93-1.55-6.61-.7-8.49,2.12-2,3-1.19,7.06,1.81,9.06,3,2,7.06,1.19,9.06-1.81,1.52-2.28,1.41-5.17-.05-7.3ZM464.68,225.72c1.05-1.57,3.17-1.99,4.74-.95s1.99,3.17.95,4.74c-1.05,1.57-3.17,1.99-4.74.95-1.57-1.05-1.99-3.17-.95-4.74ZM406.57,401.16c-1.57-1.05-1.99-3.17-.95-4.74,1.05-1.57,3.17-1.99,4.74-.95,1.57,1.05,1.99,3.17.95,4.74s-3.17,1.99-4.74.95Z"/>
              <path class="cls-19" d="M275.75,431.52c3,2,7.06,1.19,9.06-1.81,2-3,1.19-7.06-1.81-9.06-3-2-7.06-1.19-9.06,1.81-.79,1.18-1.12,2.53-1.08,3.85-44.69,6.61-89.93-3.51-127.58-28.61-17.74-11.83-33.07-26.45-45.6-43.45.22-.24.44-.48.63-.76,2-3,1.19-7.06-1.81-9.06-3-2-7.06-1.19-9.06,1.81-2,3-1.19,7.06,1.81,9.06,1.79,1.19,3.96,1.37,5.84.69,12.76,17.34,28.38,32.25,46.47,44.31,38.41,25.61,84.6,35.9,130.18,29.04.49.85,1.15,1.61,2.02,2.19ZM92.97,352.7c-1.57-1.05-1.99-3.17-.95-4.74s3.17-1.99,4.74-.95c1.57,1.05,1.99,3.17.95,4.74-1.05,1.57-3.17,1.99-4.74.95ZM281.27,423.24c1.57,1.05,1.99,3.17.95,4.74-1.05,1.57-3.17,1.99-4.74.95-1.57-1.05-1.99-3.17-.95-4.74s3.17-1.99,4.74-.95Z"/>
              <path class="cls-19" d="M363.8,78.9c-2.56-1.7-5.88-1.35-8.04.65-52.81-34.69-119.32-42.26-178.65-20.38-.46-.7-1.07-1.32-1.81-1.82-3-2-7.06-1.18-9.06,1.81-2,3-1.19,7.06,1.81,9.06,3,2,7.06,1.19,9.06-1.81.88-1.32,1.18-2.84,1.03-4.31,58.42-21.56,123.91-14.11,175.9,20.04-.98,2.76-.03,5.93,2.51,7.63,3,2,7.06,1.19,9.06-1.81s1.19-7.06-1.81-9.06ZM169.77,65.63c-1.57-1.04-1.99-3.17-.95-4.74,1.05-1.57,3.17-1.99,4.74-.95,1.57,1.05,1.99,3.17.95,4.74-1.05,1.57-3.17,1.99-4.74.95ZM358.28,87.19c-1.57-1.05-1.99-3.17-.95-4.74s3.17-1.99,4.74-.95,1.99,3.17.95,4.74c-1.05,1.57-3.17,1.99-4.74.95Z"/>
              <path class="cls-19" d="M429.77,204.65c-1.03-.69-2.18-1.02-3.34-1.07-10.82-45.76-38.28-85.29-77.46-111.41-31.37-20.91-67.78-31.65-105.32-31.09-.42-1.41-1.29-2.69-2.6-3.56-3-2-7.06-1.18-9.06,1.81-2,3-1.19,7.06,1.81,9.06,3,2,7.06,1.19,9.06-1.81.5-.75.82-1.56.98-2.39,36.86-.52,72.6,10.03,103.4,30.57,38.49,25.66,65.48,64.48,76.13,109.43-1.04.49-1.98,1.24-2.67,2.27-2,3-1.19,7.06,1.81,9.06,3,2,7.06,1.19,9.06-1.81,2-3,1.19-7.06-1.81-9.06ZM235.53,65.8c-1.57-1.04-1.99-3.17-.95-4.74,1.05-1.57,3.17-1.99,4.74-.95,1.57,1.05,1.99,3.17.95,4.74s-3.17,1.99-4.74.95ZM424.25,212.93c-1.57-1.05-1.99-3.17-.95-4.74,1.05-1.57,3.17-1.99,4.74-.95,1.57,1.05,1.99,3.17.95,4.74s-3.17,1.99-4.74.95Z"/>
              <path class="cls-19" d="M432.83,241.86c-3-2-7.06-1.19-9.06,1.81s-1.19,7.06,1.81,9.06c.8.54,1.68.85,2.58,1-1.34,33.3-11.84,65.59-30.43,93.48-22.29,33.43-54.04,57.94-91.87,71.01-.49-.99-1.22-1.89-2.2-2.55-3-2-7.06-1.19-9.06,1.81-2,3-1.19,7.06,1.81,9.06,3,2,7.06,1.19,9.06-1.81.71-1.06,1.05-2.26,1.08-3.45,38.63-13.26,71.04-38.25,93.77-72.35,18.99-28.48,29.67-61.47,30.97-95.48,1.32-.45,2.52-1.29,3.35-2.54,2-3,1.19-7.06-1.81-9.06ZM298.13,423.96c-1.57-1.05-1.99-3.17-.95-4.74s3.17-1.99,4.74-.95c1.57,1.05,1.99,3.17.95,4.74-1.05,1.57-3.17,1.99-4.74.95ZM426.36,245.4c1.05-1.57,3.17-1.99,4.74-.95s1.99,3.17.95,4.74-3.17,1.99-4.74.95c-1.57-1.05-1.99-3.17-.95-4.74Z"/>
              <path class="cls-19" d="M407.83,127.3c2-3,1.19-7.06-1.81-9.06-3-2-7.06-1.19-9.06,1.81-2,3-1.19,7.06,1.81,9.06,1.73,1.15,3.81,1.34,5.65.74,48.54,65.97,50.93,155.63,5.92,224.15-2.75-.98-5.93-.03-7.62,2.51-2,3-1.19,7.06,1.81,9.06s7.06,1.19,9.06-1.81c1.7-2.56,1.35-5.88-.65-8.05,45.68-69.54,43.3-160.5-5.86-227.5.27-.28.53-.58.76-.92ZM410.99,362.03c-1.05,1.57-3.17,1.99-4.74.95-1.57-1.05-1.99-3.17-.95-4.74,1.05-1.57,3.17-1.99,4.74-.95s1.99,3.17.95,4.74ZM400.49,126.52c-1.57-1.05-1.99-3.17-.95-4.74s3.17-1.99,4.74-.95c1.57,1.05,1.99,3.17.95,4.74-1.05,1.57-3.17,1.99-4.74.95Z"/>
              <path class="cls-19" d="M474.12,188.89c1,.67,2.12,1,3.25,1.06,14.65,60.18,5.64,122.47-25.48,175.85-2.74-.94-5.88,0-7.56,2.53-2,3-1.19,7.06,1.81,9.06s7.06,1.19,9.06-1.81c1.72-2.58,1.35-5.93-.69-8.1,31.55-54.06,40.72-117.15,25.92-178.1,1.08-.49,2.04-1.25,2.75-2.31,2-3,1.19-7.06-1.81-9.06s-7.06-1.19-9.06,1.81-1.19,7.06,1.81,9.06ZM452.61,373.86c-1.04,1.57-3.17,1.99-4.74.95s-1.99-3.17-.95-4.74c1.05-1.57,3.17-1.99,4.74-.95s1.99,3.17.95,4.74ZM479.64,180.61c1.57,1.05,1.99,3.17.95,4.74s-3.17,1.99-4.74.95-1.99-3.17-.95-4.74c1.05-1.57,3.17-1.99,4.74-.95Z"/>
              <path class="cls-19" d="M40.11,356.55c-1.56-1.04-3.4-1.3-5.09-.91-17.77-34.4-26.97-72.95-26.64-111.73,1.42-.42,2.71-1.29,3.59-2.61,2-3,1.19-7.06-1.81-9.06-3-2-7.06-1.19-9.06,1.81-2,3-1.19,7.06,1.81,9.06.74.49,1.54.81,2.36.97-.31,39.21,9,78.18,26.97,112.97-.44.38-.86.8-1.2,1.31-2,3-1.19,7.06,1.81,9.06,3,2,7.06,1.19,9.06-1.81,2-3,1.19-7.06-1.81-9.06ZM3.69,235.78c1.05-1.57,3.17-1.99,4.74-.95s1.99,3.17.95,4.74-3.17,1.99-4.74.95c-1.57-1.05-1.99-3.17-.95-4.74ZM34.59,364.83c-1.57-1.05-1.99-3.17-.95-4.74s3.17-1.99,4.74-.95c1.57,1.04,1.99,3.17.95,4.74-1.05,1.57-3.17,1.99-4.74.95Z"/>
              <path class="cls-19" d="M45.17,266.37c.86.58,1.82.89,2.78,1.02,6.33,59.1,38.24,111.83,87.67,144.79,10.24,6.83,21.11,12.71,32.33,17.51-.18,2.28.82,4.59,2.86,5.95,3,2,7.06,1.19,9.06-1.81,2-3,1.19-7.06-1.81-9.06-3-2-7.06-1.19-9.06,1.81-.03.04-.04.09-.07.14-10.96-4.71-21.58-10.46-31.58-17.13-48.67-32.45-80.07-84.36-86.3-142.54,1.25-.46,2.38-1.29,3.18-2.49,2-3,1.19-7.06-1.81-9.06-3-2-7.06-1.19-9.06,1.81-2,3-1.19,7.06,1.81,9.06ZM176.34,427.35c1.57,1.05,1.99,3.17.95,4.74s-3.17,1.99-4.74.95c-1.57-1.05-1.99-3.17-.95-4.74s3.17-1.99,4.74-.95ZM50.69,258.08c1.57,1.05,1.99,3.17.95,4.74-1.05,1.57-3.17,1.99-4.74.95-1.57-1.05-1.99-3.17-.95-4.74,1.05-1.57,3.17-1.99,4.74-.95Z"/>
              <path class="cls-19" d="M97.62,153.1c-2,3-1.19,7.06,1.81,9.06s7.06,1.19,9.06-1.81c1.7-2.54,1.35-5.84-.62-8.01,51.17-75.44,153.79-95.96,230.03-46-.99,2.76-.04,5.94,2.51,7.63,3,2,7.06,1.19,9.06-1.81,2-3,1.19-7.06-1.81-9.06-2.55-1.7-5.87-1.35-8.04.64-77.67-50.91-182.22-30-234.34,46.86-2.76-1.01-5.96-.06-7.67,2.5ZM345.94,105.7c1.57,1.05,1.99,3.17.95,4.74-1.05,1.57-3.17,1.99-4.74.95s-1.99-3.17-.95-4.74c1.05-1.57,3.17-1.99,4.74-.95ZM104.95,153.89c1.57,1.04,1.99,3.17.95,4.74s-3.17,1.99-4.74.95-1.99-3.17-.95-4.74c1.05-1.57,3.17-1.99,4.74-.95Z"/>
              <path class="cls-19" d="M55.19,147.14c2-3,1.19-7.06-1.81-9.06-3-2-7.06-1.19-9.06,1.81-1.74,2.61-1.35,6.01.75,8.17-26.51,54.18-29.84,117.59-9.21,174.57-.76.48-1.43,1.1-1.96,1.89-2,3-1.19,7.06,1.81,9.06,3,2,7.06,1.19,9.06-1.81,2-3,1.19-7.06-1.81-9.06-1.27-.85-2.73-1.16-4.14-1.05-20.35-56.11-17.12-118.56,8.91-171.96,2.71.88,5.79-.07,7.45-2.56ZM42.18,330.05c-1.05,1.57-3.17,1.99-4.74.95s-1.99-3.17-.95-4.74c1.05-1.57,3.17-1.99,4.74-.95s1.99,3.17.95,4.74ZM47.85,146.36c-1.57-1.05-1.99-3.17-.95-4.74,1.05-1.57,3.17-1.99,4.74-.95,1.57,1.04,1.99,3.17.95,4.74-1.05,1.57-3.17,1.99-4.74.95Z"/>
              <path class="cls-19" d="M234.42,11.97c3,2,7.06,1.19,9.06-1.81.38-.57.63-1.19.81-1.82,44.73-.41,88.47,11.8,126.62,35.31-.96,2.75,0,5.9,2.52,7.58,3,2,7.06,1.19,9.06-1.81,2-3,1.19-7.06-1.81-9.06-2.57-1.71-5.91-1.35-8.08.67C334,17.22,289.73,4.84,244.45,5.23c-.33-1.63-1.28-3.14-2.77-4.13-3-2-7.06-1.18-9.06,1.81-2,3-1.19,7.06,1.81,9.06ZM378.96,42.95c1.57,1.05,1.99,3.17.95,4.74s-3.17,1.99-4.74.95-1.99-3.17-.95-4.74c1.05-1.57,3.17-1.99,4.74-.95ZM239.94,3.69c1.57,1.05,1.99,3.17.95,4.74s-3.17,1.99-4.74.95c-1.57-1.04-1.99-3.17-.95-4.74,1.05-1.57,3.17-1.99,4.74-.95Z"/>
              <path class="cls-19" d="M85.27,223.7c2-3,1.19-7.06-1.81-9.06-3-2-7.06-1.19-9.06,1.81s-1.19,7.06,1.81,9.06c.28.19.58.33.88.47-6.97,58.69,17.3,117.44,63.59,153.93-1.07,2.79-.12,6.05,2.47,7.77,3,2,7.06,1.19,9.06-1.81s1.19-7.06-1.81-9.06c-2.51-1.67-5.76-1.35-7.92.55-45.29-35.78-69.06-93.3-62.31-150.78,1.99-.1,3.92-1.09,5.11-2.88ZM148.67,379.39c1.57,1.05,1.99,3.17.95,4.74s-3.17,1.99-4.74.95c-1.57-1.05-1.99-3.17-.95-4.74s3.17-1.99,4.74-.95ZM76.99,218.18c1.05-1.57,3.17-1.99,4.74-.95,1.57,1.05,1.99,3.17.95,4.74-1.05,1.57-3.17,1.99-4.74.95-1.57-1.04-1.99-3.17-.95-4.74Z"/>
              <path class="cls-19" d="M87.51,64.86c-15.88,13.92-29.94,29.95-41.76,47.68-12.18,18.27-21.77,38-28.54,58.66-2.21-.1-4.42.91-5.73,2.88-2,3-1.19,7.06,1.81,9.06s7.06,1.19,9.06-1.81,1.19-7.06-1.81-9.06c-.11-.07-.23-.11-.34-.18,6.69-20.36,16.14-39.81,28.15-57.82,11.76-17.63,25.74-33.55,41.55-47.36,2.91,1.48,6.53.61,8.39-2.17,2-3,1.19-7.06-1.81-9.06-3-2-7.06-1.19-9.06,1.81-1.54,2.3-1.4,5.23.11,7.37ZM19.75,179.6c-1.05,1.57-3.17,1.99-4.74.95-1.57-1.05-1.99-3.17-.95-4.74,1.05-1.57,3.17-1.99,4.74-.95s1.99,3.17.95,4.74ZM94.74,58.27c1.57,1.05,1.99,3.17.95,4.74s-3.17,1.99-4.74.95-1.99-3.17-.95-4.74c1.05-1.57,3.17-1.99,4.74-.95Z"/>
            </g>
            <g class="cls-18">
              <path class="cls-21" d="M174.58,397.33c.87-2.71-.08-5.78-2.56-7.44-3-2-7.06-1.19-9.06,1.81s-1.19,7.06,1.81,9.06c2.61,1.74,6.02,1.35,8.18-.76,43.44,20.77,93.74,22.09,138.46,3.63.46.66,1.03,1.26,1.75,1.73,3,2,7.06,1.19,9.06-1.81,2-3,1.19-7.06-1.81-9.06s-7.06-1.19-9.06,1.81c-.9,1.35-1.2,2.91-1.02,4.41-43.82,18.12-93.13,16.89-135.74-3.39ZM166.49,398.17c-1.57-1.05-1.99-3.17-.95-4.74s3.17-1.99,4.74-.95c1.57,1.05,1.99,3.17.95,4.74-1.05,1.57-3.17,1.99-4.74.95ZM318.67,397.09c1.57,1.05,1.99,3.17.95,4.74-1.05,1.57-3.17,1.99-4.74.95s-1.99-3.17-.95-4.74c1.05-1.57,3.17-1.99,4.74-.95ZM402.07,177.33c.62-.44,1.18-.99,1.63-1.66,2-3,1.19-7.06-1.81-9.06-3-2-7.06-1.19-9.06,1.81-2,3-1.19,7.06,1.81,9.06,1.39.93,3.01,1.22,4.54,1,23.29,52.68,18.19,112.59-13.76,160.51-7.73,11.6-16.85,22.15-27.1,31.41-.27-.26-.55-.5-.87-.71-3-2-7.06-1.19-9.06,1.81-2,3-1.19,7.06,1.81,9.06,3,2,7.06,1.19,9.06-1.81,1.16-1.74,1.35-3.82.74-5.67,10.6-9.52,20.03-20.4,28.01-32.36,32.53-48.79,37.74-109.76,14.06-163.4ZM396.36,174.89c-1.57-1.05-1.99-3.17-.95-4.74s3.17-1.99,4.74-.95c1.57,1.05,1.99,3.17.95,4.74s-3.17,1.99-4.74.95ZM351.92,377.98c-1.57-1.05-1.99-3.17-.95-4.74s3.17-1.99,4.74-.95,1.99,3.17.95,4.74c-1.05,1.57-3.17,1.99-4.74.95ZM67.35,293.88c-.98.49-1.87,1.21-2.52,2.19-2,3-1.19,7.06,1.81,9.06,3,2,7.06,1.19,9.06-1.81,2-3,1.19-7.06-1.81-9.06-1.08-.72-2.3-1.06-3.51-1.08-13.47-50.56-4.61-104.4,24.41-147.93,3.78-5.66,7.9-11.14,12.25-16.31,2.79,1.08,6.06.13,7.79-2.46,2-3,1.19-7.06-1.81-9.06s-7.06-1.19-9.06,1.81c-1.67,2.51-1.35,5.74.54,7.91-4.36,5.2-8.5,10.7-12.29,16.39-29.5,44.25-38.52,98.97-24.85,150.37ZM72.17,296.85c1.57,1.05,1.99,3.17.95,4.74s-3.17,1.99-4.74.95c-1.57-1.05-1.99-3.17-.95-4.74,1.05-1.57,3.17-1.99,4.74-.95ZM106.55,120.95c1.05-1.57,3.17-1.99,4.74-.95s1.99,3.17.95,4.74-3.17,1.99-4.74.95c-1.57-1.05-1.99-3.17-.95-4.74ZM49.76,211.89c-2.03.07-4.01,1.07-5.22,2.89-2,3-1.19,7.06,1.81,9.06,3,2,7.06,1.19,9.06-1.81,2-3,1.19-7.06-1.81-9.06-.25-.17-.52-.29-.79-.42,4.67-26.96,14.8-52.27,30.11-75.23,14.38-21.56,32.47-39.73,53.77-54.04.21.19.42.38.67.55,3,2,7.06,1.19,9.06-1.81,2-3,1.18-7.06-1.81-9.06-3-2-7.06-1.19-9.06,1.81-1.22,1.83-1.38,4.05-.65,5.97-21.62,14.53-39.98,32.97-54.57,54.86-15.53,23.29-25.8,48.96-30.56,76.3ZM52.81,220.31c-1.05,1.57-3.17,1.99-4.74.95-1.57-1.05-1.99-3.17-.95-4.74,1.05-1.57,3.17-1.99,4.74-.95,1.57,1.05,1.99,3.17.95,4.74ZM142.87,75.55c1.57,1.05,1.99,3.17.95,4.74s-3.17,1.99-4.74.95c-1.57-1.04-1.99-3.17-.95-4.74s3.17-1.99,4.74-.95ZM361.06,409.37c.17.14.32.29.51.42,3,2,7.06,1.19,9.06-1.81,2-3,1.19-7.06-1.81-9.06s-7.06-1.19-9.06,1.81c-1.26,1.89-1.4,4.21-.58,6.16-39.39,27.67-87.34,39.88-135.26,34.43-.12-1.98-1.1-3.88-2.87-5.06-3-2-7.06-1.19-9.06,1.81-2,3-1.19,7.06,1.81,9.06,3,2,7.06,1.19,9.06-1.81.2-.3.35-.61.49-.93,48.79,5.61,97.62-6.81,137.72-35.01ZM367.09,401.5c1.57,1.05,1.99,3.17.95,4.74-1.05,1.57-3.17,1.99-4.74.95-1.57-1.05-1.99-3.17-.95-4.74,1.05-1.57,3.17-1.99,4.74-.95ZM215.52,444.53c-1.57-1.05-1.99-3.17-.95-4.74s3.17-1.99,4.74-.95,1.99,3.17.95,4.74c-1.05,1.57-3.17,1.99-4.74.95ZM370.44,59.97c-21.41-14.27-44.79-24.65-69.52-30.88.19-2.29-.81-4.62-2.86-5.98-3-2-7.06-1.19-9.06,1.81s-1.19,7.06,1.81,9.06c3,2,7.06,1.19,9.06-1.81.03-.04.04-.08.06-.12,24.46,6.13,47.59,16.38,68.77,30.5,35.14,23.43,62.6,56.12,79.52,94.58-.71.47-1.35,1.08-1.85,1.84-2,3-1.19,7.06,1.81,9.06s7.06,1.19,9.06-1.81c2-3,1.19-7.06-1.81-9.06-1.3-.87-2.8-1.18-4.25-1.03-17.15-39.12-45.04-72.35-80.76-96.16ZM292.55,31.4c-1.57-1.04-1.99-3.17-.95-4.74,1.05-1.57,3.17-1.99,4.74-.95s1.99,3.17.95,4.74c-1.04,1.57-3.17,1.99-4.74.95ZM453.71,159.76c1.57,1.05,1.99,3.17.95,4.74s-3.17,1.99-4.74.95c-1.57-1.05-1.99-3.17-.95-4.74,1.05-1.57,3.17-1.99,4.74-.95ZM71.62,106.19c-2.79-1.07-6.05-.12-7.77,2.47-2,3-1.19,7.06,1.81,9.06,3,2,7.06,1.18,9.06-1.81,1.67-2.51,1.35-5.75-.55-7.92,30.64-38.21,73.65-65.34,121.47-76.6.49,1.03,1.23,1.96,2.25,2.64,3,2,7.06,1.18,9.06-1.81,2-3,1.19-7.06-1.81-9.06s-7.06-1.19-9.06,1.81c-.69,1.04-1.03,2.2-1.07,3.37-48.59,11.42-92.3,39-123.39,77.86ZM72.13,114.18c-1.05,1.57-3.17,1.99-4.74.95s-1.99-3.17-.95-4.74,3.17-1.99,4.74-.95c1.57,1.05,1.99,3.17.95,4.74ZM203.41,25.75c1.57,1.05,1.99,3.17.95,4.74-1.05,1.57-3.17,1.99-4.74.95s-1.99-3.17-.95-4.74c1.05-1.57,3.17-1.99,4.74-.95ZM122.08,432.48c48.96,32.64,107.69,44.61,165.48,33.75.49.93,1.18,1.76,2.12,2.38,3,2,7.06,1.19,9.06-1.81,2-3,1.19-7.06-1.81-9.06-3-2-7.06-1.19-9.06,1.81-.75,1.12-1.1,2.4-1.1,3.66-56.91,10.64-114.74-1.17-162.96-33.32-20-13.33-37.52-29.64-52.1-48.45.14-.17.29-.32.41-.5,2-3,1.19-7.06-1.81-9.06s-7.06-1.19-9.06,1.81c-2,3-1.19,7.06,1.81,9.06,1.89,1.26,4.21,1.4,6.17.57,14.79,19.09,32.56,35.63,52.85,49.16ZM295.2,460.33c1.57,1.05,1.99,3.17.95,4.74-1.05,1.57-3.17,1.99-4.74.95-1.57-1.05-1.99-3.17-.95-4.74,1.05-1.57,3.17-1.99,4.74-.95ZM64.79,380.15c-1.57-1.04-1.99-3.17-.95-4.74,1.05-1.57,3.17-1.99,4.74-.95s1.99,3.17.95,4.74c-1.05,1.57-3.17,1.99-4.74.95ZM369.58,447.67c-3-2-7.06-1.19-9.06,1.81-1.19,1.78-1.36,3.93-.7,5.8-77.47,42-170.87,38.01-244.38-10.41.98-2.76.03-5.93-2.51-7.63-3-2-7.06-1.19-9.06,1.81-2,3-1.19,7.06,1.81,9.06,2.56,1.7,5.88,1.35,8.04-.65,74.55,49.11,169.3,53.11,247.82,10.42.25.23.5.45.79.65,3,2,7.06,1.19,9.06-1.81,2-3,1.19-7.06-1.81-9.06ZM107.4,445.53c-1.57-1.04-1.99-3.17-.95-4.74s3.17-1.99,4.74-.95,1.99,3.17.95,4.74c-1.05,1.57-3.17,1.99-4.74.95ZM364.06,455.95c-1.57-1.05-1.99-3.17-.95-4.74,1.05-1.57,3.17-1.99,4.74-.95,1.57,1.05,1.99,3.17.95,4.74-1.05,1.57-3.17,1.99-4.74.95ZM413.86,394.64c6.71-7.6,13-15.74,18.66-24.23,27.17-40.74,40.02-87.97,37.25-136.67,1.26-.46,2.4-1.29,3.2-2.49,2-3,1.19-7.06-1.81-9.06-3-2-7.06-1.19-9.06,1.81-2,3-1.19,7.06,1.81,9.06.86.57,1.8.89,2.76,1.01,2.69,47.97-9.99,94.48-36.74,134.61-5.58,8.38-11.78,16.4-18.4,23.9-2.93-1.55-6.61-.7-8.49,2.12-2,3-1.19,7.06,1.81,9.06,3,2,7.06,1.19,9.06-1.81,1.52-2.28,1.41-5.17-.05-7.3ZM464.68,225.72c1.05-1.57,3.17-1.99,4.74-.95s1.99,3.17.95,4.74c-1.05,1.57-3.17,1.99-4.74.95-1.57-1.05-1.99-3.17-.95-4.74ZM406.57,401.16c-1.57-1.05-1.99-3.17-.95-4.74,1.05-1.57,3.17-1.99,4.74-.95,1.57,1.05,1.99,3.17.95,4.74s-3.17,1.99-4.74.95ZM275.75,431.52c3,2,7.06,1.19,9.06-1.81,2-3,1.19-7.06-1.81-9.06-3-2-7.06-1.19-9.06,1.81-.79,1.18-1.12,2.53-1.08,3.85-44.69,6.61-89.93-3.51-127.58-28.61-17.74-11.83-33.07-26.45-45.6-43.45.22-.24.44-.48.63-.76,2-3,1.19-7.06-1.81-9.06-3-2-7.06-1.19-9.06,1.81-2,3-1.19,7.06,1.81,9.06,1.79,1.19,3.96,1.37,5.84.69,12.76,17.34,28.38,32.25,46.47,44.31,38.41,25.61,84.6,35.9,130.18,29.04.49.85,1.15,1.61,2.02,2.19ZM92.97,352.7c-1.57-1.05-1.99-3.17-.95-4.74s3.17-1.99,4.74-.95c1.57,1.05,1.99,3.17.95,4.74-1.05,1.57-3.17,1.99-4.74.95ZM281.27,423.24c1.57,1.05,1.99,3.17.95,4.74-1.05,1.57-3.17,1.99-4.74.95-1.57-1.05-1.99-3.17-.95-4.74s3.17-1.99,4.74-.95ZM363.8,78.9c-2.56-1.7-5.88-1.35-8.04.65-52.81-34.69-119.32-42.26-178.65-20.38-.46-.7-1.07-1.32-1.81-1.82-3-2-7.06-1.18-9.06,1.81-2,3-1.19,7.06,1.81,9.06,3,2,7.06,1.19,9.06-1.81.88-1.32,1.18-2.84,1.03-4.31,58.42-21.56,123.91-14.11,175.9,20.04-.98,2.76-.03,5.93,2.51,7.63,3,2,7.06,1.19,9.06-1.81s1.19-7.06-1.81-9.06ZM169.77,65.63c-1.57-1.04-1.99-3.17-.95-4.74,1.05-1.57,3.17-1.99,4.74-.95,1.57,1.05,1.99,3.17.95,4.74-1.05,1.57-3.17,1.99-4.74.95ZM358.28,87.19c-1.57-1.05-1.99-3.17-.95-4.74s3.17-1.99,4.74-.95,1.99,3.17.95,4.74c-1.05,1.57-3.17,1.99-4.74.95ZM429.77,204.65c-1.03-.69-2.18-1.02-3.34-1.07-10.82-45.76-38.28-85.29-77.46-111.41-31.37-20.91-67.78-31.65-105.32-31.09-.42-1.41-1.29-2.69-2.6-3.56-3-2-7.06-1.18-9.06,1.81-2,3-1.19,7.06,1.81,9.06,3,2,7.06,1.19,9.06-1.81.5-.75.82-1.56.98-2.39,36.86-.52,72.6,10.03,103.4,30.57,38.49,25.66,65.48,64.48,76.13,109.43-1.04.49-1.98,1.24-2.67,2.27-2,3-1.19,7.06,1.81,9.06,3,2,7.06,1.19,9.06-1.81,2-3,1.19-7.06-1.81-9.06ZM235.53,65.8c-1.57-1.04-1.99-3.17-.95-4.74,1.05-1.57,3.17-1.99,4.74-.95,1.57,1.05,1.99,3.17.95,4.74s-3.17,1.99-4.74.95ZM424.25,212.93c-1.57-1.05-1.99-3.17-.95-4.74,1.05-1.57,3.17-1.99,4.74-.95,1.57,1.05,1.99,3.17.95,4.74s-3.17,1.99-4.74.95ZM432.83,241.86c-3-2-7.06-1.19-9.06,1.81s-1.19,7.06,1.81,9.06c.8.54,1.68.85,2.58,1-1.34,33.3-11.84,65.59-30.43,93.48-22.29,33.43-54.04,57.94-91.87,71.01-.49-.99-1.22-1.89-2.2-2.55-3-2-7.06-1.19-9.06,1.81-2,3-1.19,7.06,1.81,9.06,3,2,7.06,1.19,9.06-1.81.71-1.06,1.05-2.26,1.08-3.45,38.63-13.26,71.04-38.25,93.77-72.35,18.99-28.48,29.67-61.47,30.97-95.48,1.32-.45,2.52-1.29,3.35-2.54,2-3,1.19-7.06-1.81-9.06ZM298.13,423.96c-1.57-1.05-1.99-3.17-.95-4.74s3.17-1.99,4.74-.95c1.57,1.05,1.99,3.17.95,4.74-1.05,1.57-3.17,1.99-4.74.95ZM426.36,245.4c1.05-1.57,3.17-1.99,4.74-.95s1.99,3.17.95,4.74-3.17,1.99-4.74.95c-1.57-1.05-1.99-3.17-.95-4.74ZM407.83,127.3c2-3,1.19-7.06-1.81-9.06-3-2-7.06-1.19-9.06,1.81-2,3-1.19,7.06,1.81,9.06,1.73,1.15,3.81,1.34,5.65.74,48.54,65.97,50.93,155.63,5.92,224.15-2.75-.98-5.93-.03-7.62,2.51-2,3-1.19,7.06,1.81,9.06s7.06,1.19,9.06-1.81c1.7-2.56,1.35-5.88-.65-8.05,45.68-69.54,43.3-160.5-5.86-227.5.27-.28.53-.58.76-.92ZM410.99,362.03c-1.05,1.57-3.17,1.99-4.74.95-1.57-1.05-1.99-3.17-.95-4.74,1.05-1.57,3.17-1.99,4.74-.95s1.99,3.17.95,4.74ZM400.49,126.52c-1.57-1.05-1.99-3.17-.95-4.74s3.17-1.99,4.74-.95c1.57,1.05,1.99,3.17.95,4.74-1.05,1.57-3.17,1.99-4.74.95ZM474.12,188.89c1,.67,2.12,1,3.25,1.06,14.65,60.18,5.64,122.47-25.48,175.85-2.74-.94-5.88,0-7.56,2.53-2,3-1.19,7.06,1.81,9.06s7.06,1.19,9.06-1.81c1.72-2.58,1.35-5.93-.69-8.1,31.55-54.06,40.72-117.15,25.92-178.1,1.08-.49,2.04-1.25,2.75-2.31,2-3,1.19-7.06-1.81-9.06s-7.06-1.19-9.06,1.81-1.19,7.06,1.81,9.06ZM452.61,373.86c-1.04,1.57-3.17,1.99-4.74.95s-1.99-3.17-.95-4.74c1.05-1.57,3.17-1.99,4.74-.95s1.99,3.17.95,4.74ZM479.64,180.61c1.57,1.05,1.99,3.17.95,4.74s-3.17,1.99-4.74.95-1.99-3.17-.95-4.74c1.05-1.57,3.17-1.99,4.74-.95ZM40.11,356.55c-1.56-1.04-3.4-1.3-5.09-.91-17.77-34.4-26.97-72.95-26.64-111.73,1.42-.42,2.71-1.29,3.59-2.61,2-3,1.19-7.06-1.81-9.06-3-2-7.06-1.19-9.06,1.81-2,3-1.19,7.06,1.81,9.06.74.49,1.54.81,2.36.97-.31,39.21,9,78.18,26.97,112.97-.44.38-.86.8-1.2,1.31-2,3-1.19,7.06,1.81,9.06,3,2,7.06,1.19,9.06-1.81,2-3,1.19-7.06-1.81-9.06ZM3.69,235.78c1.05-1.57,3.17-1.99,4.74-.95s1.99,3.17.95,4.74-3.17,1.99-4.74.95c-1.57-1.05-1.99-3.17-.95-4.74ZM34.59,364.83c-1.57-1.05-1.99-3.17-.95-4.74s3.17-1.99,4.74-.95c1.57,1.04,1.99,3.17.95,4.74-1.05,1.57-3.17,1.99-4.74.95ZM45.17,266.37c.86.58,1.82.89,2.78,1.02,6.33,59.1,38.24,111.83,87.67,144.79,10.24,6.83,21.11,12.71,32.33,17.51-.18,2.28.82,4.59,2.86,5.95,3,2,7.06,1.19,9.06-1.81,2-3,1.19-7.06-1.81-9.06-3-2-7.06-1.19-9.06,1.81-.03.04-.04.09-.07.14-10.96-4.71-21.58-10.46-31.58-17.13-48.67-32.45-80.07-84.36-86.3-142.54,1.25-.46,2.38-1.29,3.18-2.49,2-3,1.19-7.06-1.81-9.06-3-2-7.06-1.19-9.06,1.81-2,3-1.19,7.06,1.81,9.06ZM176.34,427.35c1.57,1.05,1.99,3.17.95,4.74s-3.17,1.99-4.74.95c-1.57-1.05-1.99-3.17-.95-4.74s3.17-1.99,4.74-.95ZM50.69,258.08c1.57,1.05,1.99,3.17.95,4.74-1.05,1.57-3.17,1.99-4.74.95-1.57-1.05-1.99-3.17-.95-4.74,1.05-1.57,3.17-1.99,4.74-.95ZM97.62,153.1c-2,3-1.19,7.06,1.81,9.06s7.06,1.19,9.06-1.81c1.7-2.54,1.35-5.84-.62-8.01,51.17-75.44,153.79-95.96,230.03-46-.99,2.76-.04,5.94,2.51,7.63,3,2,7.06,1.19,9.06-1.81,2-3,1.19-7.06-1.81-9.06-2.55-1.7-5.87-1.35-8.04.64-77.67-50.91-182.22-30-234.34,46.86-2.76-1.01-5.96-.06-7.67,2.5ZM345.94,105.7c1.57,1.05,1.99,3.17.95,4.74-1.05,1.57-3.17,1.99-4.74.95s-1.99-3.17-.95-4.74c1.05-1.57,3.17-1.99,4.74-.95ZM104.95,153.89c1.57,1.04,1.99,3.17.95,4.74s-3.17,1.99-4.74.95-1.99-3.17-.95-4.74c1.05-1.57,3.17-1.99,4.74-.95ZM55.19,147.14c2-3,1.19-7.06-1.81-9.06-3-2-7.06-1.19-9.06,1.81-1.74,2.61-1.35,6.01.75,8.17-26.51,54.18-29.84,117.59-9.21,174.57-.76.48-1.43,1.1-1.96,1.89-2,3-1.19,7.06,1.81,9.06,3,2,7.06,1.19,9.06-1.81,2-3,1.19-7.06-1.81-9.06-1.27-.85-2.73-1.16-4.14-1.05-20.35-56.11-17.12-118.56,8.91-171.96,2.71.88,5.79-.07,7.45-2.56ZM42.18,330.05c-1.05,1.57-3.17,1.99-4.74.95s-1.99-3.17-.95-4.74c1.05-1.57,3.17-1.99,4.74-.95s1.99,3.17.95,4.74ZM47.85,146.36c-1.57-1.05-1.99-3.17-.95-4.74,1.05-1.57,3.17-1.99,4.74-.95,1.57,1.04,1.99,3.17.95,4.74-1.05,1.57-3.17,1.99-4.74.95ZM234.42,11.97c3,2,7.06,1.19,9.06-1.81.38-.57.63-1.19.81-1.82,44.73-.41,88.47,11.8,126.62,35.31-.96,2.75,0,5.9,2.52,7.58,3,2,7.06,1.19,9.06-1.81,2-3,1.19-7.06-1.81-9.06-2.57-1.71-5.91-1.35-8.08.67C334,17.22,289.73,4.84,244.45,5.23c-.33-1.63-1.28-3.14-2.77-4.13-3-2-7.06-1.18-9.06,1.81-2,3-1.19,7.06,1.81,9.06ZM378.96,42.95c1.57,1.05,1.99,3.17.95,4.74s-3.17,1.99-4.74.95-1.99-3.17-.95-4.74c1.05-1.57,3.17-1.99,4.74-.95ZM239.94,3.69c1.57,1.05,1.99,3.17.95,4.74s-3.17,1.99-4.74.95c-1.57-1.04-1.99-3.17-.95-4.74,1.05-1.57,3.17-1.99,4.74-.95ZM85.27,223.7c2-3,1.19-7.06-1.81-9.06-3-2-7.06-1.19-9.06,1.81s-1.19,7.06,1.81,9.06c.28.19.58.33.88.47-6.97,58.69,17.3,117.44,63.59,153.93-1.07,2.79-.12,6.05,2.47,7.77,3,2,7.06,1.19,9.06-1.81s1.19-7.06-1.81-9.06c-2.51-1.67-5.76-1.35-7.92.55-45.29-35.78-69.06-93.3-62.31-150.78,1.99-.1,3.92-1.09,5.11-2.88ZM148.67,379.39c1.57,1.05,1.99,3.17.95,4.74s-3.17,1.99-4.74.95c-1.57-1.05-1.99-3.17-.95-4.74s3.17-1.99,4.74-.95ZM76.99,218.18c1.05-1.57,3.17-1.99,4.74-.95,1.57,1.05,1.99,3.17.95,4.74-1.05,1.57-3.17,1.99-4.74.95-1.57-1.04-1.99-3.17-.95-4.74ZM87.51,64.86c-15.88,13.92-29.94,29.95-41.76,47.68-12.18,18.27-21.77,38-28.54,58.66-2.21-.1-4.42.91-5.73,2.88-2,3-1.19,7.06,1.81,9.06s7.06,1.19,9.06-1.81,1.19-7.06-1.81-9.06c-.11-.07-.23-.11-.34-.18,6.69-20.36,16.14-39.81,28.15-57.82,11.76-17.63,25.74-33.55,41.55-47.36,2.91,1.48,6.53.61,8.39-2.17,2-3,1.19-7.06-1.81-9.06-3-2-7.06-1.19-9.06,1.81-1.54,2.3-1.4,5.23.11,7.37ZM19.75,179.6c-1.05,1.57-3.17,1.99-4.74.95-1.57-1.05-1.99-3.17-.95-4.74,1.05-1.57,3.17-1.99,4.74-.95s1.99,3.17.95,4.74ZM94.74,58.27c1.57,1.05,1.99,3.17.95,4.74s-3.17,1.99-4.74.95-1.99-3.17-.95-4.74c1.05-1.57,3.17-1.99,4.74-.95Z"/>
            </g>
          </g>
          <g id="Right_Arm" data-name="Right Arm">
            <path class="cls-2" d="M113.73,462c10.9-3.93,49.71-67.5,69.87-110.28,9.47-20.15,14.81-35.66,11.17-38.21-7.47-5.24-52.58,32.99-68.37,58.16-17.42,27.82-28.57,96.1-12.68,90.33Z"/>
            <path class="cls-13" d="M113.73,462c10.9-3.93,49.71-67.5,69.87-110.28l-13.95-22.24s-58.43,44.73-55.92,132.53Z"/>
            <path class="cls-4" d="M130.7,365.44s-2.2,18.95-5.13,26.98c-2.92,8.03-13.7,16.23-13.7,16.23,0,0,8.71-31.04,18.83-43.21Z"/>
          </g>
          <g id="Body">
            <path class="cls-8" d="M161.62,320.15s43.97-53.32,163.46-31.67c0,0-75.09,35.66-163.46,31.67Z"/>
            <path class="cls-1" d="M317.67,287.24s-65.26,17.85-98.51,16.08c-33.25-1.77,13.96-17.34,13.96-17.34,0,0,43.51-7.02,84.55,1.26Z"/>
            <path class="cls-23" d="M325.08,288.49s-66.63,29.55-164.82,31.67c0,0,54.49,114.85,112.53,104.18,65.62-12.06,52.29-135.85,52.29-135.85Z"/>
            <path class="cls-6" d="M306.62,310.31s-3.89,21.09,12.89,61.05c0,0,11.07-29.62,2.99-65.09,0,0-8.83-9.31-15.88,4.04Z"/>
            <path class="cls-15" d="M320.56,293.97s-90.08,62.41-49.48,122.89c17.32,25.8,66.6-41.91,49.48-122.89Z"/>
            <path class="cls-12" d="M321.08,293.85s-25.06,7.68-10.19,39.22c0,0,19.92-12.04,10.19-39.22Z"/>
            <path class="cls-9" d="M166.18,331.63s54.29,58.87,74.58,87c0,0-34.58-12.61-74.58-87Z"/>
            <path class="cls-24" d="M276.09,423.81l.37-.48c-.24-.18-23.8-18.72-13.52-55.23,12.33-43.82,61.83-79.02,62.32-79.37l-.35-.5c-.5.35-50.17,35.67-62.56,79.7-10.39,36.92,13.5,55.69,13.74,55.87Z"/>
            <path class="cls-24" d="M240.52,418.82l.48-.37c-34.12-43.23-74.19-86.58-74.59-87.01l-.45.41c.4.43,40.45,43.77,74.56,86.97Z"/>
            <path class="cls-4" d="M207.84,318.29s-5.5-8.28-25.21,2.06c0,0,15.83.8,25.21-2.06Z"/>
            <path class="cls-4" d="M223.41,406.06s-17.09-13.46-24.28-25.49c0,0,12.86,8.95,24.28,25.49Z"/>
            <path class="cls-5" d="M290.24,322.91s-41.54,42.53-23.64,86.2c0,0-15.32-38.6,23.64-86.2Z"/>
            <path class="cls-24" d="M179.2,321.15c73.22,0,139.94-29.72,140.67-30.05l-.25-.55c-.78.35-79.27,35.32-159.34,29.31l-.05.61c6.34.48,12.68.69,18.97.69Z"/>
            <path class="cls-10" d="M303.61,298.86s-70.72,31.31-131.94,22.47c0,0,47.62,6.15,131.94-22.47Z"/>
            <path class="cls-4" d="M234.88,316.89s-12.4,8.01-27.59,3.82c0,0,17.99-1.98,27.59-3.82Z"/>
          </g>
          <g id="Left_Arm" data-name="Left Arm">
            <path class="cls-17" d="M388.5,461.86c16.03,6.99,9.01-64.14-7.14-93.97-14.62-27-58.62-69.36-66.68-64.46-12.25,7.45,57.69,151.39,73.82,158.42Z"/>
            <path class="cls-4" d="M359.79,416.33l-16.6-32.87s16.89,16.42,16.6,32.87Z"/>
          </g>
          <g id="Head">
            <path class="cls-26" d="M408.65,122.28s-196.38-45.46-305.62-21.12c0,0-4.11,166.59,124.86,184.97,138.28,19.71,180.77-163.85,180.77-163.85Z"/>
            <path class="cls-7" d="M316.54,163.36c37.68,22.22-30.13,100.86-113.19,94.77-88.71-6.51-89.29-104.46-82.57-113.75,6.72-9.29,149.37-8.38,195.76,18.97Z"/>
            <path class="cls-14" d="M103.02,101.16s20.4-31.38,69.01-7.12c0,0-42.16,1.16-69.01,7.12Z"/>
            <path class="cls-16" d="M408.65,122.28s-13.91-34.71-92.35-17.35l92.35,17.35Z"/>
            <path class="cls-3" d="M316.29,104.93s-68.69,32.18-115.25,24.74c-46.55-7.44-51.25-34.18-51.25-34.18,0,0,31.32-9.72,166.5,9.44Z"/>
            <path class="cls-24" d="M215.72,131.1c42.99,0,100.08-25.61,100.7-25.89l-.25-.55c-.66.3-66.73,29.94-110.06,25.35-43.21-4.56-55.18-28.42-56.01-34.56l-.6.08c.85,6.24,12.94,30.48,56.55,35.08,3.12.33,6.36.48,9.68.48Z"/>
            <path class="cls-4" d="M382.45,167.43s-4.48,26.51-26.12,47.73c0,0,.75-28.65,26.12-47.73Z"/>
            <path class="cls-4" d="M350.74,220.78s1.87,12.53-7.83,16.12c0,0-.13-8.09,7.83-16.12Z"/>
            <path class="cls-4" d="M112.33,111.18s3.14,20.51,0,39.03c0,0-10.07-21.73,0-39.03Z"/>
            <path class="cls-10" d="M191.24,126.33s-25.96-5.78-37.47-23.13c0,0,16.01,16.14,37.47,23.13Z"/>
            <path class="cls-4" d="M251.96,129.86s-47.99,12.46-71.63-3.53c0,0,20.85,9,71.63,3.53Z"/>
            <path class="cls-20" d="M178.66,158.85l2.75.27c.23.05.34.18.34.38v2.75c0,.23-.11.33-.34.31l-2.75-.27c-.23-.02-.34-.15-.34-.38v-2.75c.03-.23.14-.33.34-.31ZM178.66,164.01l2.75.27c.23.05.34.18.34.38v2.75c0,.23-.11.33-.34.31l-2.75-.27c-.23-.02-.34-.15-.34-.38v-2.75c.03-.23.14-.33.34-.31ZM178.66,169.17l2.75.27c.23.05.34.18.34.38v2.75c0,.23-.11.33-.34.31l-2.75-.27c-.23-.02-.34-.15-.34-.38v-2.75c.03-.23.14-.33.34-.31ZM178.66,174.33l2.75.27c.23.05.34.18.34.38v2.75c0,.23-.11.33-.34.31l-2.75-.27c-.23-.02-.34-.15-.34-.38v-2.75c.03-.23.14-.33.34-.31ZM178.66,179.49l2.75.27c.23.05.34.18.34.38v2.75c0,.23-.11.33-.34.31l-2.75-.27c-.23-.02-.34-.15-.34-.38v-2.75c.03-.23.14-.33.34-.31ZM178.66,184.65l2.75.27c.23.05.34.18.34.38v2.75c0,.23-.11.33-.34.31l-2.75-.27c-.23-.02-.34-.15-.34-.38v-2.75c.03-.23.14-.33.34-.31ZM178.66,189.81l2.75.27c.23.05.34.18.34.38v2.75c0,.23-.11.33-.34.31l-2.75-.27c-.23-.02-.34-.15-.34-.38v-2.75c.03-.23.14-.33.34-.31ZM178.66,194.97l2.75.27c.23.05.34.18.34.38v2.75c0,.23-.11.33-.34.31l-2.75-.27c-.23-.02-.34-.15-.34-.38v-2.75c.03-.23.14-.33.34-.31ZM178.66,200.13l2.75.27c.23.05.34.18.34.38v2.75c0,.23-.11.33-.34.31l-2.75-.27c-.23-.02-.34-.15-.34-.38v-2.75c.03-.23.14-.33.34-.31ZM178.66,205.29l2.75.27c.23.05.34.18.34.38v2.75c0,.23-.11.33-.34.31l-2.75-.27c-.23-.02-.34-.15-.34-.38v-2.75c.03-.23.14-.33.34-.31ZM183.82,159.36l2.75.27c.23.05.34.18.34.38v2.75c0,.23-.11.33-.34.31l-2.75-.27c-.23-.02-.34-.15-.34-.38v-2.75c.03-.23.14-.33.34-.31ZM183.82,164.52l2.75.27c.23.05.34.18.34.38v2.75c0,.23-.11.33-.34.31l-2.75-.27c-.23-.02-.34-.15-.34-.38v-2.75c.03-.23.14-.33.34-.31ZM183.82,169.68l2.75.27c.23.05.34.18.34.38v2.75c0,.23-.11.33-.34.31l-2.75-.27c-.23-.02-.34-.15-.34-.38v-2.75c.03-.23.14-.33.34-.31ZM183.82,174.84l2.75.27c.23.05.34.18.34.38v2.75c0,.23-.11.33-.34.31l-2.75-.27c-.23-.02-.34-.15-.34-.38v-2.75c.03-.23.14-.33.34-.31ZM183.82,180l2.75.27c.23.05.34.18.34.38v2.75c0,.23-.11.33-.34.31l-2.75-.27c-.23-.02-.34-.15-.34-.38v-2.75c.03-.23.14-.33.34-.31ZM183.82,185.16l2.75.27c.23.05.34.18.34.38v2.75c0,.23-.11.33-.34.31l-2.75-.27c-.23-.02-.34-.15-.34-.38v-2.75c.03-.23.14-.33.34-.31ZM183.82,190.32l2.75.27c.23.05.34.18.34.38v2.75c0,.23-.11.33-.34.31l-2.75-.27c-.23-.02-.34-.15-.34-.38v-2.75c.03-.23.14-.33.34-.31ZM183.82,195.48l2.75.27c.23.05.34.18.34.38v2.75c0,.23-.11.33-.34.31l-2.75-.27c-.23-.02-.34-.15-.34-.38v-2.75c.03-.23.14-.33.34-.31ZM183.82,200.64l2.75.27c.23.05.34.18.34.38v2.75c0,.23-.11.33-.34.31l-2.75-.27c-.23-.02-.34-.15-.34-.38v-2.75c.03-.23.14-.33.34-.31ZM183.82,205.8l2.75.27c.23.05.34.18.34.38v2.75c0,.23-.11.33-.34.31l-2.75-.27c-.23-.02-.34-.15-.34-.38v-2.75c.03-.23.14-.33.34-.31ZM188.98,159.87l2.75.27c.23.05.34.18.34.38v2.75c0,.23-.11.33-.34.31l-2.75-.27c-.23-.02-.34-.15-.34-.38v-2.75c.03-.23.14-.33.34-.31ZM188.98,165.03l2.75.27c.23.05.34.18.34.38v2.75c0,.23-.11.33-.34.31l-2.75-.27c-.23-.02-.34-.15-.34-.38v-2.75c.03-.23.14-.33.34-.31ZM188.98,170.19l2.75.27c.23.05.34.18.34.38v2.75c0,.23-.11.33-.34.31l-2.75-.27c-.23-.02-.34-.15-.34-.38v-2.75c.03-.23.14-.33.34-.31ZM188.98,175.35l2.75.27c.23.05.34.18.34.38v2.75c0,.23-.11.33-.34.31l-2.75-.27c-.23-.02-.34-.15-.34-.38v-2.75c.03-.23.14-.33.34-.31ZM188.98,180.51l2.75.27c.23.05.34.18.34.38v2.75c0,.23-.11.33-.34.31l-2.75-.27c-.23-.02-.34-.15-.34-.38v-2.75c.03-.23.14-.33.34-.31ZM188.98,185.67l2.75.27c.23.05.34.18.34.38v2.75c0,.23-.11.33-.34.31l-2.75-.27c-.23-.02-.34-.15-.34-.38v-2.75c.03-.23.14-.33.34-.31ZM188.98,190.83l2.75.27c.23.05.34.18.34.38v2.75c0,.23-.11.33-.34.31l-2.75-.27c-.23-.02-.34-.15-.34-.38v-2.75c.03-.23.14-.33.34-.31ZM188.98,195.99l2.75.27c.23.05.34.18.34.38v2.75c0,.23-.11.33-.34.31l-2.75-.27c-.23-.02-.34-.15-.34-.38v-2.75c.03-.23.14-.33.34-.31ZM188.98,201.15l2.75.27c.23.05.34.18.34.38v2.75c0,.23-.11.33-.34.31l-2.75-.27c-.23-.02-.34-.15-.34-.38v-2.75c.03-.23.14-.33.34-.31ZM188.98,206.31l2.75.27c.23.05.34.18.34.38v2.75c0,.23-.11.33-.34.31l-2.75-.27c-.23-.02-.34-.15-.34-.38v-2.75c.03-.23.14-.33.34-.31ZM194.14,160.38l2.75.27c.23.05.34.18.34.38v2.75c0,.23-.11.33-.34.31l-2.75-.27c-.23-.02-.34-.15-.34-.38v-2.75c.03-.23.14-.33.34-.31ZM194.14,165.54l2.75.27c.23.05.34.18.34.38v2.75c0,.23-.11.33-.34.31l-2.75-.27c-.23-.02-.34-.15-.34-.38v-2.75c.03-.23.14-.33.34-.31ZM194.14,170.7l2.75.27c.23.05.34.18.34.38v2.75c0,.23-.11.33-.34.31l-2.75-.27c-.23-.02-.34-.15-.34-.38v-2.75c.03-.23.14-.33.34-.31ZM194.14,175.86l2.75.27c.23.05.34.18.34.38v2.75c0,.23-.11.33-.34.31l-2.75-.27c-.23-.02-.34-.15-.34-.38v-2.75c.03-.23.14-.33.34-.31ZM194.14,181.02l2.75.27c.23.05.34.18.34.38v2.75c0,.23-.11.33-.34.31l-2.75-.27c-.23-.02-.34-.15-.34-.38v-2.75c.03-.23.14-.33.34-.31ZM194.14,186.18l2.75.27c.23.05.34.18.34.38v2.75c0,.23-.11.33-.34.31l-2.75-.27c-.23-.02-.34-.15-.34-.38v-2.75c.03-.23.14-.33.34-.31ZM194.14,191.34l2.75.27c.23.05.34.18.34.38v2.75c0,.23-.11.33-.34.31l-2.75-.27c-.23-.02-.34-.15-.34-.38v-2.75c.03-.23.14-.33.34-.31ZM194.14,196.5l2.75.27c.23.05.34.18.34.38v2.75c0,.23-.11.33-.34.31l-2.75-.27c-.23-.02-.34-.15-.34-.38v-2.75c.03-.23.14-.33.34-.31ZM194.14,201.66l2.75.27c.23.05.34.18.34.38v2.75c0,.23-.11.33-.34.31l-2.75-.27c-.23-.02-.34-.15-.34-.38v-2.75c.03-.23.14-.33.34-.31ZM194.14,206.82l2.75.27c.23.05.34.18.34.38v2.75c0,.23-.11.33-.34.31l-2.75-.27c-.23-.02-.34-.15-.34-.38v-2.75c.03-.23.14-.33.34-.31ZM199.31,191.85l2.75.27c.23.05.34.18.34.38v2.75c0,.23-.12.33-.34.31l-2.75-.27c-.23-.02-.34-.15-.34-.38v-2.75c.03-.23.14-.33.34-.31ZM199.31,197.01l2.75.27c.23.05.34.18.34.38v2.75c0,.23-.12.33-.34.31l-2.75-.27c-.23-.02-.34-.15-.34-.38v-2.75c.03-.23.14-.33.34-.31ZM199.31,202.17l2.75.27c.23.05.34.18.34.38v2.75c0,.23-.12.33-.34.31l-2.75-.27c-.23-.02-.34-.15-.34-.38v-2.75c.03-.23.14-.33.34-.31ZM199.31,207.33l2.75.27c.23.05.34.18.34.38v2.75c0,.23-.12.33-.34.31l-2.75-.27c-.23-.02-.34-.15-.34-.38v-2.75c.03-.23.14-.33.34-.31ZM204.47,192.36l2.75.27c.23.05.34.18.34.38v2.75c0,.23-.12.33-.34.31l-2.75-.27c-.23-.02-.34-.15-.34-.38v-2.75c.03-.23.14-.33.34-.31ZM204.47,197.52l2.75.27c.23.05.34.18.34.38v2.75c0,.23-.12.33-.34.31l-2.75-.27c-.23-.02-.34-.15-.34-.38v-2.75c.03-.23.14-.33.34-.31ZM204.47,202.68l2.75.27c.23.05.34.18.34.38v2.75c0,.23-.12.33-.34.31l-2.75-.27c-.23-.02-.34-.15-.34-.38v-2.75c.03-.23.14-.33.34-.31ZM204.47,207.84l2.75.27c.23.05.34.18.34.38v2.75c0,.23-.12.33-.34.31l-2.75-.27c-.23-.02-.34-.15-.34-.38v-2.75c.03-.23.14-.33.34-.31ZM209.63,192.87l2.75.27c.23.05.34.18.34.38v2.75c0,.23-.12.33-.34.31l-2.75-.27c-.23-.02-.34-.15-.34-.38v-2.75c.03-.23.14-.33.34-.31ZM209.63,198.03l2.75.27c.23.05.34.18.34.38v2.75c0,.23-.12.33-.34.31l-2.75-.27c-.23-.02-.34-.15-.34-.38v-2.75c.03-.23.14-.33.34-.31ZM209.63,203.19l2.75.27c.23.05.34.18.34.38v2.75c0,.23-.12.33-.34.31l-2.75-.27c-.23-.02-.34-.15-.34-.38v-2.75c.03-.23.14-.33.34-.31ZM209.63,208.35l2.75.27c.23.05.34.18.34.38v2.75c0,.23-.12.33-.34.31l-2.75-.27c-.23-.02-.34-.15-.34-.38v-2.75c.03-.23.14-.33.34-.31ZM214.79,193.38l2.75.27c.23.05.34.18.34.38v2.75c0,.23-.12.33-.34.31l-2.75-.27c-.23-.02-.34-.15-.34-.38v-2.75c.03-.23.14-.33.34-.31ZM214.79,198.54l2.75.27c.23.05.34.18.34.38v2.75c0,.23-.12.33-.34.31l-2.75-.27c-.23-.02-.34-.15-.34-.38v-2.75c.03-.23.14-.33.34-.31ZM214.79,203.7l2.75.27c.23.05.34.18.34.38v2.75c0,.23-.12.33-.34.31l-2.75-.27c-.23-.02-.34-.15-.34-.38v-2.75c.03-.23.14-.33.34-.31ZM214.79,208.86l2.75.27c.23.05.34.18.34.38v2.75c0,.23-.12.33-.34.31l-2.75-.27c-.23-.02-.34-.15-.34-.38v-2.75c.03-.23.14-.33.34-.31ZM219.95,162.93l2.75.27c.23.05.34.18.34.38v2.75c0,.23-.11.33-.34.31l-2.75-.27c-.23-.02-.34-.15-.34-.38v-2.75c.03-.23.14-.33.34-.31ZM219.95,168.09l2.75.27c.23.05.34.18.34.38v2.75c0,.23-.11.33-.34.31l-2.75-.27c-.23-.02-.34-.15-.34-.38v-2.75c.03-.23.14-.33.34-.31ZM219.95,173.25l2.75.27c.23.05.34.18.34.38v2.75c0,.23-.11.33-.34.31l-2.75-.27c-.23-.02-.34-.15-.34-.38v-2.75c.03-.23.14-.33.34-.31ZM219.95,178.41l2.75.27c.23.05.34.18.34.38v2.75c0,.23-.11.33-.34.31l-2.75-.27c-.23-.02-.34-.15-.34-.38v-2.75c.03-.23.14-.33.34-.31ZM219.95,183.57l2.75.27c.23.05.34.18.34.38v2.75c0,.23-.11.33-.34.31l-2.75-.27c-.23-.02-.34-.15-.34-.38v-2.75c.03-.23.14-.33.34-.31ZM219.95,188.73l2.75.27c.23.05.34.18.34.38v2.75c0,.23-.11.33-.34.31l-2.75-.27c-.23-.02-.34-.15-.34-.38v-2.75c.03-.23.14-.33.34-.31ZM219.95,193.89l2.75.27c.23.05.34.18.34.38v2.75c0,.23-.11.33-.34.31l-2.75-.27c-.23-.02-.34-.15-.34-.38v-2.75c.03-.23.14-.33.34-.31ZM219.95,199.05l2.75.27c.23.05.34.18.34.38v2.75c0,.23-.11.33-.34.31l-2.75-.27c-.23-.02-.34-.15-.34-.38v-2.75c.03-.23.14-.33.34-.31ZM219.95,204.21l2.75.27c.23.05.34.18.34.38v2.75c0,.23-.11.33-.34.31l-2.75-.27c-.23-.02-.34-.15-.34-.38v-2.75c.03-.23.14-.33.34-.31ZM219.95,209.37l2.75.27c.23.05.34.18.34.38v2.75c0,.23-.11.33-.34.31l-2.75-.27c-.23-.02-.34-.15-.34-.38v-2.75c.03-.23.14-.33.34-.31ZM219.95,214.53l2.75.27c.23.05.34.18.34.38v2.75c0,.23-.11.33-.34.31l-2.75-.27c-.23-.02-.34-.15-.34-.38v-2.75c.03-.23.14-.33.34-.31ZM219.95,219.69l2.75.27c.23.05.34.18.34.38v2.75c0,.23-.11.33-.34.31l-2.75-.27c-.23-.02-.34-.15-.34-.38v-2.75c.03-.23.14-.33.34-.31ZM219.95,224.85l2.75.27c.23.05.34.18.34.38v2.75c0,.23-.11.33-.34.31l-2.75-.27c-.23-.02-.34-.15-.34-.38v-2.75c.03-.23.14-.33.34-.31ZM219.95,230.01l2.75.27c.23.05.34.18.34.38v2.75c0,.23-.11.33-.34.31l-2.75-.27c-.23-.02-.34-.15-.34-.38v-2.75c.03-.23.14-.33.34-.31ZM219.95,235.18l2.75.27c.23.05.34.18.34.38v2.75c0,.23-.11.33-.34.31l-2.75-.27c-.23-.02-.34-.15-.34-.38v-2.75c.03-.23.14-.33.34-.31ZM219.95,240.34l2.75.27c.23.05.34.18.34.38v2.75c0,.23-.11.33-.34.31l-2.75-.27c-.23-.02-.34-.15-.34-.38v-2.75c.03-.23.14-.33.34-.31ZM225.11,163.43l2.75.27c.23.05.34.18.34.38v2.75c0,.23-.11.33-.34.31l-2.75-.27c-.23-.02-.34-.15-.34-.38v-2.75c.03-.23.14-.33.34-.31ZM225.11,168.6l2.75.27c.23.05.34.18.34.38v2.75c0,.23-.11.33-.34.31l-2.75-.27c-.23-.02-.34-.15-.34-.38v-2.75c.03-.23.14-.33.34-.31ZM225.11,173.76l2.75.27c.23.05.34.18.34.38v2.75c0,.23-.11.33-.34.31l-2.75-.27c-.23-.02-.34-.15-.34-.38v-2.75c.03-.23.14-.33.34-.31ZM225.11,178.92l2.75.27c.23.05.34.18.34.38v2.75c0,.23-.11.33-.34.31l-2.75-.27c-.23-.02-.34-.15-.34-.38v-2.75c.03-.23.14-.33.34-.31ZM225.11,184.08l2.75.27c.23.05.34.18.34.38v2.75c0,.23-.11.33-.34.31l-2.75-.27c-.23-.02-.34-.15-.34-.38v-2.75c.03-.23.14-.33.34-.31ZM225.11,189.24l2.75.27c.23.05.34.18.34.38v2.75c0,.23-.11.33-.34.31l-2.75-.27c-.23-.02-.34-.15-.34-.38v-2.75c.03-.23.14-.33.34-.31ZM225.11,194.4l2.75.27c.23.05.34.18.34.38v2.75c0,.23-.11.33-.34.31l-2.75-.27c-.23-.02-.34-.15-.34-.38v-2.75c.03-.23.14-.33.34-.31ZM225.11,199.56l2.75.27c.23.05.34.18.34.38v2.75c0,.23-.11.33-.34.31l-2.75-.27c-.23-.02-.34-.15-.34-.38v-2.75c.03-.23.14-.33.34-.31ZM225.11,204.72l2.75.27c.23.05.34.18.34.38v2.75c0,.23-.11.33-.34.31l-2.75-.27c-.23-.02-.34-.15-.34-.38v-2.75c.03-.23.14-.33.34-.31ZM225.11,209.88l2.75.27c.23.05.34.18.34.38v2.75c0,.23-.11.33-.34.31l-2.75-.27c-.23-.02-.34-.15-.34-.38v-2.75c.03-.23.14-.33.34-.31ZM225.11,215.04l2.75.27c.23.05.34.18.34.38v2.75c0,.23-.11.33-.34.31l-2.75-.27c-.23-.02-.34-.15-.34-.38v-2.75c.03-.23.14-.33.34-.31ZM225.11,220.2l2.75.27c.23.05.34.18.34.38v2.75c0,.23-.11.33-.34.31l-2.75-.27c-.23-.02-.34-.15-.34-.38v-2.75c.03-.23.14-.33.34-.31ZM225.11,225.36l2.75.27c.23.05.34.18.34.38v2.75c0,.23-.11.33-.34.31l-2.75-.27c-.23-.02-.34-.15-.34-.38v-2.75c.03-.23.14-.33.34-.31ZM225.11,230.52l2.75.27c.23.05.34.18.34.38v2.75c0,.23-.11.33-.34.31l-2.75-.27c-.23-.02-.34-.15-.34-.38v-2.75c.03-.23.14-.33.34-.31ZM225.11,235.68l2.75.27c.23.05.34.18.34.38v2.75c0,.23-.11.33-.34.31l-2.75-.27c-.23-.02-.34-.15-.34-.38v-2.75c.03-.23.14-.33.34-.31ZM225.11,240.85l2.75.27c.23.05.34.18.34.38v2.75c0,.23-.11.33-.34.31l-2.75-.27c-.23-.02-.34-.15-.34-.38v-2.75c.03-.23.14-.33.34-.31ZM230.27,163.94l2.75.27c.23.05.34.18.34.38v2.75c0,.23-.11.33-.34.31l-2.75-.27c-.23-.02-.34-.15-.34-.38v-2.75c.03-.23.14-.33.34-.31ZM230.27,169.11l2.75.27c.23.05.34.18.34.38v2.75c0,.23-.11.33-.34.31l-2.75-.27c-.23-.02-.34-.15-.34-.38v-2.75c.03-.23.14-.33.34-.31ZM230.27,174.27l2.75.27c.23.05.34.18.34.38v2.75c0,.23-.11.33-.34.31l-2.75-.27c-.23-.02-.34-.15-.34-.38v-2.75c.03-.23.14-.33.34-.31ZM230.27,179.43l2.75.27c.23.05.34.18.34.38v2.75c0,.23-.11.33-.34.31l-2.75-.27c-.23-.02-.34-.15-.34-.38v-2.75c.03-.23.14-.33.34-.31ZM230.27,184.59l2.75.27c.23.05.34.18.34.38v2.75c0,.23-.11.33-.34.31l-2.75-.27c-.23-.02-.34-.15-.34-.38v-2.75c.03-.23.14-.33.34-.31ZM230.27,189.75l2.75.27c.23.05.34.18.34.38v2.75c0,.23-.11.33-.34.31l-2.75-.27c-.23-.02-.34-.15-.34-.38v-2.75c.03-.23.14-.33.34-.31ZM230.27,194.91l2.75.27c.23.05.34.18.34.38v2.75c0,.23-.11.33-.34.31l-2.75-.27c-.23-.02-.34-.15-.34-.38v-2.75c.03-.23.14-.33.34-.31ZM230.27,200.07l2.75.27c.23.05.34.18.34.38v2.75c0,.23-.11.33-.34.31l-2.75-.27c-.23-.02-.34-.15-.34-.38v-2.75c.03-.23.14-.33.34-.31ZM230.27,205.23l2.75.27c.23.05.34.18.34.38v2.75c0,.23-.11.33-.34.31l-2.75-.27c-.23-.02-.34-.15-.34-.38v-2.75c.03-.23.14-.33.34-.31ZM230.27,210.39l2.75.27c.23.05.34.18.34.38v2.75c0,.23-.11.33-.34.31l-2.75-.27c-.23-.02-.34-.15-.34-.38v-2.75c.03-.23.14-.33.34-.31ZM230.27,215.55l2.75.27c.23.05.34.18.34.38v2.75c0,.23-.11.33-.34.31l-2.75-.27c-.23-.02-.34-.15-.34-.38v-2.75c.03-.23.14-.33.34-.31ZM230.27,220.71l2.75.27c.23.05.34.18.34.38v2.75c0,.23-.11.33-.34.31l-2.75-.27c-.23-.02-.34-.15-.34-.38v-2.75c.03-.23.14-.33.34-.31ZM230.27,225.87l2.75.27c.23.05.34.18.34.38v2.75c0,.23-.11.33-.34.31l-2.75-.27c-.23-.02-.34-.15-.34-.38v-2.75c.03-.23.14-.33.34-.31ZM230.27,231.03l2.75.27c.23.05.34.18.34.38v2.75c0,.23-.11.33-.34.31l-2.75-.27c-.23-.02-.34-.15-.34-.38v-2.75c.03-.23.14-.33.34-.31ZM230.27,236.19l2.75.27c.23.05.34.18.34.38v2.75c0,.23-.11.33-.34.31l-2.75-.27c-.23-.02-.34-.15-.34-.38v-2.75c.03-.23.14-.33.34-.31ZM230.27,241.36l2.75.27c.23.05.34.18.34.38v2.75c0,.23-.11.33-.34.31l-2.75-.27c-.23-.02-.34-.15-.34-.38v-2.75c.03-.23.14-.33.34-.31ZM235.43,164.45l2.75.27c.23.05.34.18.34.38v2.75c0,.23-.12.33-.34.31l-2.75-.27c-.23-.02-.34-.15-.34-.38v-2.75c.03-.23.14-.33.34-.31ZM235.43,169.62l2.75.27c.23.05.34.18.34.38v2.75c0,.23-.12.33-.34.31l-2.75-.27c-.23-.02-.34-.15-.34-.38v-2.75c.03-.23.14-.33.34-.31ZM235.43,174.78l2.75.27c.23.05.34.18.34.38v2.75c0,.23-.12.33-.34.31l-2.75-.27c-.23-.02-.34-.15-.34-.38v-2.75c.03-.23.14-.33.34-.31ZM235.43,179.94l2.75.27c.23.05.34.18.34.38v2.75c0,.23-.12.33-.34.31l-2.75-.27c-.23-.02-.34-.15-.34-.38v-2.75c.03-.23.14-.33.34-.31ZM235.43,185.1l2.75.27c.23.05.34.18.34.38v2.75c0,.23-.12.33-.34.31l-2.75-.27c-.23-.02-.34-.15-.34-.38v-2.75c.03-.23.14-.33.34-.31ZM235.43,190.26l2.75.27c.23.05.34.18.34.38v2.75c0,.23-.12.33-.34.31l-2.75-.27c-.23-.02-.34-.15-.34-.38v-2.75c.03-.23.14-.33.34-.31ZM235.43,195.42l2.75.27c.23.05.34.18.34.38v2.75c0,.23-.12.33-.34.31l-2.75-.27c-.23-.02-.34-.15-.34-.38v-2.75c.03-.23.14-.33.34-.31ZM235.43,200.58l2.75.27c.23.05.34.18.34.38v2.75c0,.23-.12.33-.34.31l-2.75-.27c-.23-.02-.34-.15-.34-.38v-2.75c.03-.23.14-.33.34-.31ZM235.43,205.74l2.75.27c.23.05.34.18.34.38v2.75c0,.23-.12.33-.34.31l-2.75-.27c-.23-.02-.34-.15-.34-.38v-2.75c.03-.23.14-.33.34-.31ZM235.43,210.9l2.75.27c.23.05.34.18.34.38v2.75c0,.23-.12.33-.34.31l-2.75-.27c-.23-.02-.34-.15-.34-.38v-2.75c.03-.23.14-.33.34-.31ZM240.4,196.29l2.75.27c.23.05.34.18.34.38v2.75c0,.23-.12.33-.34.31l-2.75-.27c-.23-.02-.34-.15-.34-.38v-2.75c.03-.23.14-.33.34-.31ZM240.4,201.45l2.75.27c.23.05.34.18.34.38v2.75c0,.23-.12.33-.34.31l-2.75-.27c-.23-.02-.34-.15-.34-.38v-2.75c.03-.23.14-.33.34-.31ZM240.4,206.61l2.75.27c.23.05.34.18.34.38v2.75c0,.23-.12.33-.34.31l-2.75-.27c-.23-.02-.34-.15-.34-.38v-2.75c.03-.23.14-.33.34-.31ZM240.4,211.77l2.75.27c.23.05.34.18.34.38v2.75c0,.23-.12.33-.34.31l-2.75-.27c-.23-.02-.34-.15-.34-.38v-2.75c.03-.23.14-.33.34-.31ZM235.43,216.06l2.75.27c.23.05.34.18.34.38v2.75c0,.23-.12.33-.34.31l-2.75-.27c-.23-.02-.34-.15-.34-.38v-2.75c.03-.23.14-.33.34-.31ZM235.43,221.22l2.75.27c.23.05.34.18.34.38v2.75c0,.23-.12.33-.34.31l-2.75-.27c-.23-.02-.34-.15-.34-.38v-2.75c.03-.23.14-.33.34-.31ZM235.43,226.38l2.75.27c.23.05.34.18.34.38v2.75c0,.23-.12.33-.34.31l-2.75-.27c-.23-.02-.34-.15-.34-.38v-2.75c.03-.23.14-.33.34-.31ZM235.43,231.54l2.75.27c.23.05.34.18.34.38v2.75c0,.23-.12.33-.34.31l-2.75-.27c-.23-.02-.34-.15-.34-.38v-2.75c.03-.23.14-.33.34-.31ZM235.43,236.7l2.75.27c.23.05.34.18.34.38v2.75c0,.23-.12.33-.34.31l-2.75-.27c-.23-.02-.34-.15-.34-.38v-2.75c.03-.23.14-.33.34-.31ZM235.43,241.86l2.75.27c.23.05.34.18.34.38v2.75c0,.23-.12.33-.34.31l-2.75-.27c-.23-.02-.34-.15-.34-.38v-2.75c.03-.23.14-.33.34-.31Z"/>
            <path class="cls-4" d="M267.27,98.88s-79.46,2.3-92.09-4.59c0,0,39.31.67,92.09,4.59Z"/>
            <path class="cls-4" d="M214.83,145.39s-25.86,10.76-37.12-2.14c0,0,16.48-.32,37.12,2.14Z"/>
            <path class="cls-11" d="M306.23,163.94s-81.02-29.31-183.43-18.29c0,0-18.77,54.09,37.46,99.16,0,0,17.46,2.51,47.04-41.9,29.58-44.4,98.94-38.98,98.94-38.98Z"/>
          </g>
        </g>
      </g>
    </g>
  </g>
</svg>